<svg width="32" height="32" viewBox="0 0 32 32" fill="none" xmlns="http://www.w3.org/2000/svg">
<path d="M24.7197 16.9682C24.7646 21.8016 28.9599 23.41 29.0063 23.4306C28.9709 23.544 28.336 25.7227 26.7961 27.9732C25.4649 29.9189 24.0833 31.8574 21.9068 31.8976C19.7682 31.937 19.0805 30.6294 16.6355 30.6294C14.1913 30.6294 13.4272 31.8574 11.4028 31.937C9.30197 32.0165 7.70221 29.833 6.35994 27.8945C3.61717 23.9291 1.52113 16.6894 4.33558 11.8025C5.73375 9.37558 8.23236 7.83878 10.9444 7.79938C13.0074 7.76002 14.9545 9.18727 16.2157 9.18727C17.476 9.18727 19.8422 7.47088 22.3298 7.72296C23.3712 7.7663 26.2943 8.14361 28.1714 10.8911C28.0201 10.9849 24.6834 12.9273 24.7197 16.9682ZM20.7005 5.09955C21.8158 3.74947 22.5665 1.87003 22.3617 0C20.754 0.0646146 18.81 1.07132 17.6568 2.42066C16.6234 3.61556 15.7183 5.52808 15.9625 7.3611C17.7545 7.49974 19.5851 6.45049 20.7005 5.09955Z" fill="black"/>
</svg>
