<svg width="32" height="32" viewBox="0 0 32 32" fill="none" xmlns="http://www.w3.org/2000/svg">
<path d="M12.4191 24.9977C12.0881 24.9983 11.7673 24.8939 11.5125 24.7026C11.369 24.5949 11.2505 24.4627 11.1635 24.3134C11.0766 24.1641 11.0231 24.0008 11.006 23.8328C10.9889 23.6648 11.0085 23.4953 11.0639 23.3342C11.1192 23.1731 11.209 23.0234 11.3283 22.8938L17.6746 16.0176L11.555 9.12859C11.4373 8.99736 11.3494 8.84637 11.2964 8.6843C11.2434 8.52222 11.2262 8.35225 11.246 8.18416C11.2657 8.01607 11.322 7.85317 11.4115 7.70482C11.5009 7.55647 11.6219 7.4256 11.7674 7.31974C11.914 7.20295 12.0857 7.11486 12.2716 7.06099C12.4575 7.00713 12.6538 6.98865 12.848 7.00672C13.0422 7.02479 13.2302 7.07901 13.4001 7.16599C13.5701 7.25298 13.7184 7.37083 13.8357 7.51217L20.6777 15.2094C20.8861 15.4389 21 15.7269 21 16.024C21 16.3212 20.8861 16.6091 20.6777 16.8386L13.5948 24.5358C13.4527 24.6911 13.2722 24.8138 13.0679 24.8941C12.8636 24.9743 12.6413 25.0098 12.4191 24.9977Z" fill="#333336"/>
</svg>
