<svg width="24" height="24" viewBox="0 0 24 24" fill="none" xmlns="http://www.w3.org/2000/svg">
<path d="M19.42 11.75H16C15.59 11.75 15.25 11.41 15.25 11V4.01C15.25 3.27 15.54 2.58 16.06 2.06C16.58 1.54 17.27 1.25 18.01 1.25H18.02C19.27 1.26 20.45 1.75 21.35 2.64C22.25 3.55 22.74 4.75 22.74 6V8.42C22.75 10.41 21.41 11.75 19.42 11.75ZM16.75 10.25H19.42C20.58 10.25 21.25 9.58 21.25 8.42V6C21.25 5.14 20.91 4.32 20.3 3.7C19.69 3.1 18.88 2.76 18.02 2.75H18.01C17.68 2.75 17.36 2.88 17.12 3.12C16.88 3.36 16.75 3.67 16.75 4.01V10.25Z" fill="url(#paint0_linear_317_711)"/>
<path d="M8.99999 23.33C8.52999 23.33 8.08999 23.15 7.75999 22.81L6.09999 21.14C6.0573 21.0963 5.99986 21.07 5.93886 21.0663C5.87785 21.0626 5.81766 21.0817 5.76999 21.12L4.05999 22.4C3.52999 22.8 2.82999 22.87 2.22999 22.57C1.62999 22.27 1.25999 21.67 1.25999 21V6C1.25999 2.98 2.98999 1.25 6.00999 1.25H18.01C18.42 1.25 18.76 1.59 18.76 2C18.76 2.41 18.42 2.75 18.01 2.75C17.32 2.75 16.76 3.31 16.76 4V21C16.76 21.67 16.39 22.27 15.79 22.57C15.2 22.87 14.49 22.8 13.96 22.4L12.25 21.12C12.2033 21.0839 12.1451 21.0661 12.0862 21.0697C12.0273 21.0734 11.9718 21.0984 11.93 21.14L10.25 22.82C9.90999 23.15 9.46999 23.33 8.99999 23.33ZM5.90999 19.57C6.36999 19.57 6.81999 19.74 7.15999 20.09L8.81999 21.76C8.87999 21.82 8.95999 21.83 8.99999 21.83C9.03999 21.83 9.11999 21.82 9.17999 21.76L10.86 20.08C11.48 19.46 12.46 19.4 13.15 19.93L14.85 21.2C14.96 21.28 15.06 21.25 15.11 21.22C15.16 21.19 15.25 21.13 15.25 21V4C15.25 3.55 15.36 3.12 15.55 2.75H5.99999C3.77999 2.75 2.74999 3.78 2.74999 6V21C2.74999 21.14 2.83999 21.2 2.88999 21.23C2.94999 21.26 3.04999 21.28 3.14999 21.2L4.85999 19.92C5.16999 19.69 5.53999 19.57 5.90999 19.57Z" fill="url(#paint1_linear_317_711)"/>
<path d="M12 9.75H5.99999C5.58999 9.75 5.24999 9.41 5.24999 9C5.24999 8.59 5.58999 8.25 5.99999 8.25H12C12.41 8.25 12.75 8.59 12.75 9C12.75 9.41 12.41 9.75 12 9.75Z" fill="url(#paint2_linear_317_711)"/>
<path d="M11.25 13.75H6.74999C6.33999 13.75 5.99999 13.41 5.99999 13C5.99999 12.59 6.33999 12.25 6.74999 12.25H11.25C11.66 12.25 12 12.59 12 13C12 13.41 11.66 13.75 11.25 13.75Z" fill="url(#paint3_linear_317_711)"/>
<defs>
<linearGradient id="paint0_linear_317_711" x1="1.25344" y1="12.4006" x2="22.7401" y2="12.3998" gradientUnits="userSpaceOnUse">
<stop stop-color="#736BFF"/>
<stop offset="1" stop-color="#AC59FF"/>
</linearGradient>
<linearGradient id="paint1_linear_317_711" x1="1.25344" y1="12.4006" x2="22.7401" y2="12.3998" gradientUnits="userSpaceOnUse">
<stop stop-color="#736BFF"/>
<stop offset="1" stop-color="#AC59FF"/>
</linearGradient>
<linearGradient id="paint2_linear_317_711" x1="1.25344" y1="12.4006" x2="22.7401" y2="12.3998" gradientUnits="userSpaceOnUse">
<stop stop-color="#736BFF"/>
<stop offset="1" stop-color="#AC59FF"/>
</linearGradient>
<linearGradient id="paint3_linear_317_711" x1="1.25344" y1="12.4006" x2="22.7401" y2="12.3998" gradientUnits="userSpaceOnUse">
<stop stop-color="#736BFF"/>
<stop offset="1" stop-color="#AC59FF"/>
</linearGradient>
</defs>
</svg>
