<svg width="32" height="32" viewBox="0 0 32 32" fill="none" xmlns="http://www.w3.org/2000/svg">
<g clip-path="url(#clip0_317_961)">
<path d="M7.99163 23.9917C7.99163 24.7925 8.52552 25.3264 9.32635 25.3264H10.6611V29.9979C10.6611 31.0657 11.5954 32 12.6632 32C13.7309 32 14.6652 31.0657 14.6652 29.9979V25.3264H17.3347V29.9979C17.3347 31.0657 18.269 32 19.3368 32C20.4046 32 21.3389 31.0657 21.3389 29.9979V25.3264H22.6736C23.4744 25.3264 24.0083 24.7925 24.0083 23.9917V10.6445H7.99163V23.9917ZM4.65482 10.6445C3.58705 10.6445 2.65274 11.5788 2.65274 12.6465V21.9896C2.65274 23.0574 3.58705 23.9917 4.65482 23.9917C5.7226 23.9917 6.65691 23.0574 6.65691 21.9896V12.6465C6.65691 11.5788 5.7226 10.6445 4.65482 10.6445ZM27.3451 10.6445C26.2773 10.6445 25.343 11.5788 25.343 12.6465V21.9896C25.343 23.0574 26.2773 23.9917 27.3451 23.9917C28.4129 23.9917 29.3472 23.0574 29.3472 21.9896V12.6465C29.3472 11.5788 28.4129 10.6445 27.3451 10.6445ZM20.6715 2.90307L22.4066 1.16793C22.6736 0.90099 22.6736 0.500573 22.4066 0.233629C22.1396 -0.033368 21.7393 -0.033368 21.4723 0.233629L19.4702 2.23571C18.5359 1.56835 17.3346 1.30135 15.9999 1.30135C14.6652 1.30135 13.4639 1.56835 12.3962 2.10219L10.5276 0.100104C10.2606 -0.0333681 9.72672 -0.0333681 9.45977 0.100104C9.3263 0.367101 9.3263 0.90099 9.45977 1.16788L11.1949 2.90302C9.3263 4.37122 7.99158 6.64019 7.99158 9.30964H24.0082C24.0083 6.6403 22.6736 4.2378 20.6715 2.90307ZM13.3305 6.6403H11.9958V5.30557H13.3305V6.6403ZM20.0041 6.6403H18.6694V5.30557H20.0041V6.6403Z" fill="#A4C639"/>
</g>
<defs>
<clipPath id="clip0_317_961">
<rect width="32" height="32" fill="white"/>
</clipPath>
</defs>
</svg>
