<svg width="32" height="32" viewBox="0 0 32 32" fill="none" xmlns="http://www.w3.org/2000/svg">
<path d="M7.33333 7.66667C7.33333 7.29848 7.03486 7 6.66667 7C6.29848 7 6 7.29848 6 7.66667V9C6 9.36819 6.29848 9.66667 6.66667 9.66667C7.03486 9.66667 7.33333 9.36819 7.33333 9V7.66667Z" fill="white"/>
<path d="M26 7.66667C26 7.29848 25.7015 7 25.3333 7C24.9651 7 24.6667 7.29848 24.6667 7.66667V13C24.6667 13.3682 24.9651 13.6667 25.3333 13.6667C25.7015 13.6667 26 13.3682 26 13V7.66667Z" fill="white"/>
<path d="M7.33333 11.6667C7.33333 11.2985 7.03486 11 6.66667 11C6.29848 11 6 11.2985 6 11.6667V13C6 13.3682 6.29848 13.6667 6.66667 13.6667C7.03486 13.6667 7.33333 13.3682 7.33333 13V11.6667Z" fill="white"/>
<path fill-rule="evenodd" clip-rule="evenodd" d="M22.6667 26.3333V5C22.6667 4.26362 22.0697 3.66667 21.3333 3.66667H20.961L20.2355 5.84327C19.8725 6.9322 18.8535 7.66667 17.7057 7.66667V5L18.1501 3.66667H13.8499L14.2943 5V7.66667C13.1465 7.66667 12.1275 6.9322 11.7645 5.84327L11.039 3.66667H10.6667C9.93027 3.66667 9.33333 4.26362 9.33333 5V26.3333C9.33333 27.0697 9.93027 27.6667 10.6667 27.6667H21.3333C22.0697 27.6667 22.6667 27.0697 22.6667 26.3333ZM25.3333 5V26.3333C25.3333 28.5425 23.5425 30.3333 21.3333 30.3333H10.6667C8.45753 30.3333 6.66667 28.5425 6.66667 26.3333V5C6.66667 2.79086 8.45753 1 10.6667 1H12H20H21.3333C23.5425 1 25.3333 2.79086 25.3333 5Z" fill="white"/>
<path d="M14.2943 7.66667H17.7057V5H14.2943V7.66667Z" fill="white"/>
</svg>
