<svg width="32" height="32" viewBox="0 0 32 32" fill="none" xmlns="http://www.w3.org/2000/svg">
<path d="M25.1355 28.066C25.7242 27.6237 25.8429 26.7878 25.4006 26.1991C24.9583 25.6104 24.1224 25.4917 23.5337 25.934L25.1355 28.066ZM28.3333 15C28.3333 15.7364 28.9303 16.3333 29.6667 16.3333C30.403 16.3333 31 15.7364 31 15H28.3333ZM23 10.4447C23 9.70828 22.403 9.11133 21.6667 9.11133C20.9303 9.11133 20.3333 9.70828 20.3333 10.4447H23ZM31 14.6669C31 13.9305 30.403 13.3335 29.6667 13.3335C28.9303 13.3335 28.3333 13.9305 28.3333 14.6669H31ZM23.5337 25.934C21.5281 27.4409 19.0368 28.3333 16.3333 28.3333V31C19.6342 31 22.6839 29.9079 25.1355 28.066L23.5337 25.934ZM16.3333 28.3333C9.70591 28.3333 4.33333 22.9608 4.33333 16.3333H1.66667C1.66667 24.4335 8.23315 31 16.3333 31V28.3333ZM4.33333 16.3333C4.33333 9.70591 9.70591 4.33333 16.3333 4.33333V1.66667C8.23315 1.66667 1.66667 8.23315 1.66667 16.3333H4.33333ZM16.3333 4.33333C22.5288 4.33333 28.3333 8.30945 28.3333 15H31C31 6.35722 23.4712 1.66667 16.3333 1.66667V4.33333ZM20.3333 16.3333C20.3333 18.9107 18.244 21 15.6667 21V23.6667C19.7168 23.6667 23 20.3834 23 16.3333H20.3333ZM15.6667 21C13.0893 21 11 18.9107 11 16.3333H8.33333C8.33333 20.3834 11.6166 23.6667 15.6667 23.6667V21ZM11 16.3333C11 13.756 13.0893 11.6667 15.6667 11.6667V9C11.6166 9 8.33333 12.2832 8.33333 16.3333H11ZM15.6667 11.6667C18.244 11.6667 20.3333 13.756 20.3333 16.3333H23C23 12.2832 19.7168 9 15.6667 9V11.6667ZM20.3333 10.4447C20.3333 10.4451 20.3333 10.4455 20.3333 10.446C20.3333 10.4465 20.3333 10.4469 20.3333 10.4474C20.3333 10.4479 20.3333 10.4484 20.3333 10.4489C20.3333 10.4494 20.3333 10.4499 20.3333 10.4504C20.3333 10.4509 20.3333 10.4514 20.3333 10.452C20.3333 10.4525 20.3333 10.4531 20.3333 10.4536C20.3333 10.4542 20.3333 10.4547 20.3333 10.4553C20.3333 10.4559 20.3333 10.4565 20.3333 10.4571C20.3333 10.4577 20.3333 10.4583 20.3333 10.459C20.3333 10.4596 20.3333 10.4602 20.3333 10.4609C20.3333 10.4615 20.3333 10.4622 20.3333 10.4628C20.3333 10.4635 20.3333 10.4642 20.3333 10.4649C20.3333 10.4655 20.3333 10.4662 20.3333 10.467C20.3333 10.4677 20.3333 10.4684 20.3333 10.4691C20.3333 10.4698 20.3333 10.4706 20.3333 10.4713C20.3333 10.4721 20.3333 10.4728 20.3333 10.4736C20.3333 10.4744 20.3333 10.4752 20.3333 10.476C20.3333 10.4768 20.3333 10.4776 20.3333 10.4784C20.3333 10.4792 20.3333 10.48 20.3333 10.4809C20.3333 10.4817 20.3333 10.4825 20.3333 10.4834C20.3333 10.4842 20.3333 10.4851 20.3333 10.486C20.3333 10.4869 20.3333 10.4878 20.3333 10.4887C20.3333 10.4896 20.3333 10.4905 20.3333 10.4914C20.3333 10.4923 20.3333 10.4932 20.3333 10.4942C20.3333 10.4951 20.3333 10.4961 20.3333 10.497C20.3333 10.498 20.3333 10.499 20.3333 10.4999C20.3333 10.5009 20.3333 10.5019 20.3333 10.5029C20.3333 10.5039 20.3333 10.5049 20.3333 10.506C20.3333 10.507 20.3333 10.508 20.3333 10.5091C20.3333 10.5101 20.3333 10.5112 20.3333 10.5122C20.3333 10.5133 20.3333 10.5144 20.3333 10.5155C20.3333 10.5166 20.3333 10.5177 20.3333 10.5188C20.3333 10.5199 20.3333 10.521 20.3333 10.5221C20.3333 10.5233 20.3333 10.5244 20.3333 10.5255C20.3333 10.5267 20.3333 10.5279 20.3333 10.529C20.3333 10.5302 20.3333 10.5314 20.3333 10.5326C20.3333 10.5338 20.3333 10.535 20.3333 10.5362C20.3333 10.5374 20.3333 10.5386 20.3333 10.5399C20.3333 10.5411 20.3333 10.5423 20.3333 10.5436C20.3333 10.5448 20.3333 10.5461 20.3333 10.5474C20.3333 10.5487 20.3333 10.55 20.3333 10.5513C20.3333 10.5525 20.3333 10.5539 20.3333 10.5552C20.3333 10.5565 20.3333 10.5578 20.3333 10.5592C20.3333 10.5605 20.3333 10.5618 20.3333 10.5632C20.3333 10.5646 20.3333 10.5659 20.3333 10.5673C20.3333 10.5687 20.3333 10.5701 20.3333 10.5715C20.3333 10.5729 20.3333 10.5743 20.3333 10.5757C20.3333 10.5772 20.3333 10.5786 20.3333 10.58C20.3333 10.5815 20.3333 10.5829 20.3333 10.5844C20.3333 10.5859 20.3333 10.5873 20.3333 10.5888C20.3333 10.5903 20.3333 10.5918 20.3333 10.5933C20.3333 10.5948 20.3333 10.5963 20.3333 10.5979C20.3333 10.5994 20.3333 10.6009 20.3333 10.6025C20.3333 10.604 20.3333 10.6056 20.3333 10.6071C20.3333 10.6087 20.3333 10.6103 20.3333 10.6119C20.3333 10.6135 20.3333 10.6151 20.3333 10.6167C20.3333 10.6183 20.3333 10.6199 20.3333 10.6215C20.3333 10.6232 20.3333 10.6248 20.3333 10.6265C20.3333 10.6281 20.3333 10.6298 20.3333 10.6315C20.3333 10.6331 20.3333 10.6348 20.3333 10.6365C20.3333 10.6382 20.3333 10.6399 20.3333 10.6416C20.3333 10.6433 20.3333 10.6451 20.3333 10.6468C20.3333 10.6485 20.3333 10.6503 20.3333 10.652C20.3333 10.6538 20.3333 10.6556 20.3333 10.6573C20.3333 10.6591 20.3333 10.6609 20.3333 10.6627C20.3333 10.6645 20.3333 10.6663 20.3333 10.6681C20.3333 10.6699 20.3333 10.6718 20.3333 10.6736C20.3333 10.6754 20.3333 10.6773 20.3333 10.6791C20.3333 10.681 20.3333 10.6829 20.3333 10.6848C20.3333 10.6866 20.3333 10.6885 20.3333 10.6904C20.3333 10.6923 20.3333 10.6942 20.3333 10.6962C20.3333 10.6981 20.3333 10.7 20.3333 10.702C20.3333 10.7039 20.3333 10.7059 20.3333 10.7078C20.3333 10.7098 20.3333 10.7118 20.3333 10.7137C20.3333 10.7157 20.3333 10.7177 20.3333 10.7197C20.3333 10.7217 20.3333 10.7237 20.3333 10.7258C20.3333 10.7278 20.3333 10.7298 20.3333 10.7319C20.3333 10.7339 20.3333 10.736 20.3333 10.738C20.3333 10.7401 20.3333 10.7422 20.3333 10.7443C20.3333 10.7464 20.3333 10.7485 20.3333 10.7506C20.3333 10.7527 20.3333 10.7548 20.3333 10.7569C20.3333 10.7591 20.3333 10.7612 20.3333 10.7633C20.3333 10.7655 20.3333 10.7677 20.3333 10.7698C20.3333 10.772 20.3333 10.7742 20.3333 10.7764C20.3333 10.7786 20.3333 10.7808 20.3333 10.783C20.3333 10.7852 20.3333 10.7874 20.3333 10.7896C20.3333 10.7919 20.3333 10.7941 20.3333 10.7964C20.3333 10.7986 20.3333 10.8009 20.3333 10.8032C20.3333 10.8054 20.3333 10.8077 20.3333 10.81C20.3333 10.8123 20.3333 10.8146 20.3333 10.8169C20.3333 10.8192 20.3333 10.8216 20.3333 10.8239C20.3333 10.8262 20.3333 10.8286 20.3333 10.8309C20.3333 10.8333 20.3333 10.8356 20.3333 10.838C20.3333 10.8404 20.3333 10.8428 20.3333 10.8452C20.3333 10.8476 20.3333 10.85 20.3333 10.8524C20.3333 10.8548 20.3333 10.8573 20.3333 10.8597C20.3333 10.8621 20.3333 10.8646 20.3333 10.867C20.3333 10.8695 20.3333 10.872 20.3333 10.8744C20.3333 10.8769 20.3333 10.8794 20.3333 10.8819C20.3333 10.8844 20.3333 10.8869 20.3333 10.8894C20.3333 10.892 20.3333 10.8945 20.3333 10.897C20.3333 10.8996 20.3333 10.9021 20.3333 10.9047C20.3333 10.9072 20.3333 10.9098 20.3333 10.9124C20.3333 10.915 20.3333 10.9176 20.3333 10.9202C20.3333 10.9228 20.3333 10.9254 20.3333 10.928C20.3333 10.9306 20.3333 10.9333 20.3333 10.9359C20.3333 10.9386 20.3333 10.9412 20.3333 10.9439C20.3333 10.9465 20.3333 10.9492 20.3333 10.9519C20.3333 10.9546 20.3333 10.9573 20.3333 10.96C20.3333 10.9627 20.3333 10.9654 20.3333 10.9681C20.3333 10.9708 20.3333 10.9736 20.3333 10.9763C20.3333 10.9791 20.3333 10.9818 20.3333 10.9846C20.3333 10.9874 20.3333 10.9901 20.3333 10.9929C20.3333 10.9957 20.3333 10.9985 20.3333 11.0013C20.3333 11.0041 20.3333 11.0069 20.3333 11.0098C20.3333 11.0126 20.3333 11.0154 20.3333 11.0183C20.3333 11.0211 20.3333 11.024 20.3333 11.0269C20.3333 11.0297 20.3333 11.0326 20.3333 11.0355C20.3333 11.0384 20.3333 11.0413 20.3333 11.0442C20.3333 11.0471 20.3333 11.05 20.3333 11.0529C20.3333 11.0559 20.3333 11.0588 20.3333 11.0618C20.3333 11.0647 20.3333 11.0677 20.3333 11.0706C20.3333 11.0736 20.3333 11.0766 20.3333 11.0796C20.3333 11.0826 20.3333 11.0856 20.3333 11.0886C20.3333 11.0916 20.3333 11.0946 20.3333 11.0976C20.3333 11.1007 20.3333 11.1037 20.3333 11.1068C20.3333 11.1098 20.3333 11.1129 20.3333 11.116C20.3333 11.119 20.3333 11.1221 20.3333 11.1252C20.3333 11.1283 20.3333 11.1314 20.3333 11.1345C20.3333 11.1376 20.3333 11.1407 20.3333 11.1439C20.3333 11.147 20.3333 11.1502 20.3333 11.1533C20.3333 11.1565 20.3333 11.1596 20.3333 11.1628C20.3333 11.166 20.3333 11.1692 20.3333 11.1724C20.3333 11.1755 20.3333 11.1788 20.3333 11.182C20.3333 11.1852 20.3333 11.1884 20.3333 11.1916C20.3333 11.1949 20.3333 11.1981 20.3333 11.2014C20.3333 11.2046 20.3333 11.2079 20.3333 11.2112C20.3333 11.2144 20.3333 11.2177 20.3333 11.221C20.3333 11.2243 20.3333 11.2276 20.3333 11.2309C20.3333 11.2343 20.3333 11.2376 20.3333 11.2409C20.3333 11.2443 20.3333 11.2476 20.3333 11.251C20.3333 11.2543 20.3333 11.2577 20.3333 11.2611C20.3333 11.2644 20.3333 11.2678 20.3333 11.2712C20.3333 11.2746 20.3333 11.278 20.3333 11.2814C20.3333 11.2849 20.3333 11.2883 20.3333 11.2917C20.3333 11.2952 20.3333 11.2986 20.3333 11.3021C20.3333 11.3055 20.3333 11.309 20.3333 11.3125C20.3333 11.3159 20.3333 11.3194 20.3333 11.3229C20.3333 11.3264 20.3333 11.3299 20.3333 11.3335C20.3333 11.337 20.3333 11.3405 20.3333 11.344C20.3333 11.3476 20.3333 11.3511 20.3333 11.3547C20.3333 11.3582 20.3333 11.3618 20.3333 11.3654C20.3333 11.369 20.3333 11.3726 20.3333 11.3762C20.3333 11.3798 20.3333 11.3834 20.3333 11.387C20.3333 11.3906 20.3333 11.3942 20.3333 11.3979C20.3333 11.4015 20.3333 11.4052 20.3333 11.4088C20.3333 11.4125 20.3333 11.4162 20.3333 11.4198C20.3333 11.4235 20.3333 11.4272 20.3333 11.4309C20.3333 11.4346 20.3333 11.4383 20.3333 11.442C20.3333 11.4457 20.3333 11.4495 20.3333 11.4532C20.3333 11.457 20.3333 11.4607 20.3333 11.4645C20.3333 11.4682 20.3333 11.472 20.3333 11.4758C20.3333 11.4796 20.3333 11.4833 20.3333 11.4872C20.3333 11.491 20.3333 11.4948 20.3333 11.4986C20.3333 11.5024 20.3333 11.5062 20.3333 11.5101C20.3333 11.5139 20.3333 11.5178 20.3333 11.5216C20.3333 11.5255 20.3333 11.5294 20.3333 11.5332C20.3333 11.5371 20.3333 11.541 20.3333 11.5449C20.3333 11.5488 20.3333 11.5527 20.3333 11.5566C20.3333 11.5606 20.3333 11.5645 20.3333 11.5684C20.3333 11.5724 20.3333 11.5763 20.3333 11.5803C20.3333 11.5843 20.3333 11.5882 20.3333 11.5922C20.3333 11.5962 20.3333 11.6002 20.3333 11.6042C20.3333 11.6082 20.3333 11.6122 20.3333 11.6162C20.3333 11.6202 20.3333 11.6243 20.3333 11.6283C20.3333 11.6323 20.3333 11.6364 20.3333 11.6405C20.3333 11.6445 20.3333 11.6486 20.3333 11.6527C20.3333 11.6568 20.3333 11.6608 20.3333 11.6649C20.3333 11.669 20.3333 11.6732 20.3333 11.6773C20.3333 11.6814 20.3333 11.6855 20.3333 11.6897C20.3333 11.6938 20.3333 11.698 20.3333 11.7021C20.3333 11.7063 20.3333 11.7105 20.3333 11.7146C20.3333 11.7188 20.3333 11.723 20.3333 11.7272C20.3333 11.7314 20.3333 11.7356 20.3333 11.7399C20.3333 11.7441 20.3333 11.7483 20.3333 11.7525C20.3333 11.7568 20.3333 11.761 20.3333 11.7653C20.3333 11.7696 20.3333 11.7738 20.3333 11.7781C20.3333 11.7824 20.3333 11.7867 20.3333 11.791C20.3333 11.7953 20.3333 11.7996 20.3333 11.8039C20.3333 11.8082 20.3333 11.8126 20.3333 11.8169C20.3333 11.8213 20.3333 11.8256 20.3333 11.83C20.3333 11.8343 20.3333 11.8387 20.3333 11.8431C20.3333 11.8475 20.3333 11.8519 20.3333 11.8563C20.3333 11.8607 20.3333 11.8651 20.3333 11.8695C20.3333 11.8739 20.3333 11.8783 20.3333 11.8828C20.3333 11.8872 20.3333 11.8917 20.3333 11.8961C20.3333 11.9006 20.3333 11.9051 20.3333 11.9095C20.3333 11.914 20.3333 11.9185 20.3333 11.923C20.3333 11.9275 20.3333 11.932 20.3333 11.9365C20.3333 11.9411 20.3333 11.9456 20.3333 11.9501C20.3333 11.9547 20.3333 11.9592 20.3333 11.9638C20.3333 11.9683 20.3333 11.9729 20.3333 11.9775C20.3333 11.9821 20.3333 11.9867 20.3333 11.9913C20.3333 11.9959 20.3333 12.0005 20.3333 12.0051C20.3333 12.0097 20.3333 12.0143 20.3333 12.019C20.3333 12.0236 20.3333 12.0283 20.3333 12.0329C20.3333 12.0376 20.3333 12.0423 20.3333 12.0469C20.3333 12.0516 20.3333 12.0563 20.3333 12.061C20.3333 12.0657 20.3333 12.0704 20.3333 12.0751C20.3333 12.0798 20.3333 12.0846 20.3333 12.0893C20.3333 12.0941 20.3333 12.0988 20.3333 12.1036C20.3333 12.1083 20.3333 12.1131 20.3333 12.1179C20.3333 12.1226 20.3333 12.1274 20.3333 12.1322C20.3333 12.137 20.3333 12.1418 20.3333 12.1467C20.3333 12.1515 20.3333 12.1563 20.3333 12.1611C20.3333 12.166 20.3333 12.1708 20.3333 12.1757C20.3333 12.1805 20.3333 12.1854 20.3333 12.1903C20.3333 12.1952 20.3333 12.2 20.3333 12.2049C20.3333 12.2098 20.3333 12.2147 20.3333 12.2197C20.3333 12.2246 20.3333 12.2295 20.3333 12.2344C20.3333 12.2394 20.3333 12.2443 20.3333 12.2493C20.3333 12.2542 20.3333 12.2592 20.3333 12.2642C20.3333 12.2691 20.3333 12.2741 20.3333 12.2791C20.3333 12.2841 20.3333 12.2891 20.3333 12.2941C20.3333 12.2992 20.3333 12.3042 20.3333 12.3092C20.3333 12.3143 20.3333 12.3193 20.3333 12.3244C20.3333 12.3294 20.3333 12.3345 20.3333 12.3395C20.3333 12.3446 20.3333 12.3497 20.3333 12.3548C20.3333 12.3599 20.3333 12.365 20.3333 12.3701C20.3333 12.3752 20.3333 12.3803 20.3333 12.3855C20.3333 12.3906 20.3333 12.3958 20.3333 12.4009C20.3333 12.4061 20.3333 12.4112 20.3333 12.4164C20.3333 12.4216 20.3333 12.4268 20.3333 12.4319C20.3333 12.4371 20.3333 12.4423 20.3333 12.4475C20.3333 12.4528 20.3333 12.458 20.3333 12.4632C20.3333 12.4684 20.3333 12.4737 20.3333 12.4789C20.3333 12.4842 20.3333 12.4894 20.3333 12.4947C20.3333 12.5 20.3333 12.5053 20.3333 12.5106C20.3333 12.5159 20.3333 12.5212 20.3333 12.5265C20.3333 12.5318 20.3333 12.5371 20.3333 12.5424C20.3333 12.5478 20.3333 12.5531 20.3333 12.5584C20.3333 12.5638 20.3333 12.5691 20.3333 12.5745C20.3333 12.5799 20.3333 12.5853 20.3333 12.5907C20.3333 12.596 20.3333 12.6014 20.3333 12.6068C20.3333 12.6123 20.3333 12.6177 20.3333 12.6231C20.3333 12.6285 20.3333 12.634 20.3333 12.6394C20.3333 12.6449 20.3333 12.6503 20.3333 12.6558C20.3333 12.6612 20.3333 12.6667 20.3333 12.6722C20.3333 12.6777 20.3333 12.6832 20.3333 12.6887C20.3333 12.6942 20.3333 12.6997 20.3333 12.7052C20.3333 12.7108 20.3333 12.7163 20.3333 12.7218C20.3333 12.7274 20.3333 12.7329 20.3333 12.7385C20.3333 12.7441 20.3333 12.7497 20.3333 12.7552C20.3333 12.7608 20.3333 12.7664 20.3333 12.772C20.3333 12.7776 20.3333 12.7832 20.3333 12.7889C20.3333 12.7945 20.3333 12.8001 20.3333 12.8058C20.3333 12.8114 20.3333 12.817 20.3333 12.8227C20.3333 12.8284 20.3333 12.834 20.3333 12.8397C20.3333 12.8454 20.3333 12.8511 20.3333 12.8568C20.3333 12.8625 20.3333 12.8682 20.3333 12.8739C20.3333 12.8796 20.3333 12.8854 20.3333 12.8911C20.3333 12.8969 20.3333 12.9026 20.3333 12.9084C20.3333 12.9141 20.3333 12.9199 20.3333 12.9257C20.3333 12.9315 20.3333 12.9372 20.3333 12.943C20.3333 12.9488 20.3333 12.9546 20.3333 12.9605C20.3333 12.9663 20.3333 12.9721 20.3333 12.9779C20.3333 12.9838 20.3333 12.9896 20.3333 12.9955C20.3333 13.0013 20.3333 13.0072 20.3333 13.0131C20.3333 13.019 20.3333 13.0248 20.3333 13.0307C20.3333 13.0366 20.3333 13.0425 20.3333 13.0485C20.3333 13.0544 20.3333 13.0603 20.3333 13.0662C20.3333 13.0722 20.3333 13.0781 20.3333 13.0841C20.3333 13.09 20.3333 13.096 20.3333 13.1019C20.3333 13.1079 20.3333 13.1139 20.3333 13.1199C20.3333 13.1259 20.3333 13.1319 20.3333 13.1379C20.3333 13.1439 20.3333 13.1499 20.3333 13.156C20.3333 13.162 20.3333 13.168 20.3333 13.1741C20.3333 13.1801 20.3333 13.1862 20.3333 13.1923C20.3333 13.1983 20.3333 13.2044 20.3333 13.2105C20.3333 13.2166 20.3333 13.2227 20.3333 13.2288C20.3333 13.2349 20.3333 13.241 20.3333 13.2472C20.3333 13.2533 20.3333 13.2594 20.3333 13.2656C20.3333 13.2717 20.3333 13.2779 20.3333 13.284C20.3333 13.2902 20.3333 13.2964 20.3333 13.3026C20.3333 13.3088 20.3333 13.3149 20.3333 13.3212C20.3333 13.3274 20.3333 13.3336 20.3333 13.3398C20.3333 13.346 20.3333 13.3523 20.3333 13.3585C20.3333 13.3647 20.3333 13.371 20.3333 13.3773C20.3333 13.3835 20.3333 13.3898 20.3333 13.3961C20.3333 13.4024 20.3333 13.4086 20.3333 13.415C20.3333 13.4213 20.3333 13.4276 20.3333 13.4339C20.3333 13.4402 20.3333 13.4465 20.3333 13.4529C20.3333 13.4592 20.3333 13.4656 20.3333 13.4719C20.3333 13.4783 20.3333 13.4847 20.3333 13.491C20.3333 13.4974 20.3333 13.5038 20.3333 13.5102C20.3333 13.5166 20.3333 13.523 20.3333 13.5294C20.3333 13.5358 20.3333 13.5423 20.3333 13.5487C20.3333 13.5551 20.3333 13.5616 20.3333 13.568C20.3333 13.5745 20.3333 13.581 20.3333 13.5874C20.3333 13.5939 20.3333 13.6004 20.3333 13.6069C20.3333 13.6134 20.3333 13.6199 20.3333 13.6264C20.3333 13.6329 20.3333 13.6394 20.3333 13.646C20.3333 13.6525 20.3333 13.659 20.3333 13.6656C20.3333 13.6721 20.3333 13.6787 20.3333 13.6853C20.3333 13.6918 20.3333 13.6984 20.3333 13.705C20.3333 13.7116 20.3333 13.7182 20.3333 13.7248C20.3333 13.7314 20.3333 13.738 20.3333 13.7447C20.3333 13.7513 20.3333 13.7579 20.3333 13.7646C20.3333 13.7712 20.3333 13.7779 20.3333 13.7845C20.3333 13.7912 20.3333 13.7979 20.3333 13.8046C20.3333 13.8113 20.3333 13.818 20.3333 13.8247C20.3333 13.8314 20.3333 13.8381 20.3333 13.8448C20.3333 13.8515 20.3333 13.8583 20.3333 13.865C20.3333 13.8717 20.3333 13.8785 20.3333 13.8853C20.3333 13.892 20.3333 13.8988 20.3333 13.9056C20.3333 13.9124 20.3333 13.9191 20.3333 13.9259C20.3333 13.9327 20.3333 13.9396 20.3333 13.9464C20.3333 13.9532 20.3333 13.96 20.3333 13.9669C20.3333 13.9737 20.3333 13.9805 20.3333 13.9874C20.3333 13.9943 20.3333 14.0011 20.3333 14.008C20.3333 14.0149 20.3333 14.0218 20.3333 14.0287C20.3333 14.0356 20.3333 14.0425 20.3333 14.0494C20.3333 14.0563 20.3333 14.0632 20.3333 14.0702C20.3333 14.0771 20.3333 14.084 20.3333 14.091C20.3333 14.0979 20.3333 14.1049 20.3333 14.1119C20.3333 14.1188 20.3333 14.1258 20.3333 14.1328C20.3333 14.1398 20.3333 14.1468 20.3333 14.1538C20.3333 14.1608 20.3333 14.1678 20.3333 14.1749C20.3333 14.1819 20.3333 14.1889 20.3333 14.196C20.3333 14.203 20.3333 14.2101 20.3333 14.2172C20.3333 14.2242 20.3333 14.2313 20.3333 14.2384C20.3333 14.2455 20.3333 14.2526 20.3333 14.2597C20.3333 14.2668 20.3333 14.2739 20.3333 14.281C20.3333 14.2881 20.3333 14.2953 20.3333 14.3024C20.3333 14.3096 20.3333 14.3167 20.3333 14.3239C20.3333 14.331 20.3333 14.3382 20.3333 14.3454C20.3333 14.3526 20.3333 14.3598 20.3333 14.367C20.3333 14.3742 20.3333 14.3814 20.3333 14.3886C20.3333 14.3958 20.3333 14.403 20.3333 14.4103C20.3333 14.4175 20.3333 14.4248 20.3333 14.432C20.3333 14.4393 20.3333 14.4465 20.3333 14.4538C20.3333 14.4611 20.3333 14.4684 20.3333 14.4757C20.3333 14.483 20.3333 14.4903 20.3333 14.4976C20.3333 14.5049 20.3333 14.5122 20.3333 14.5196C20.3333 14.5269 20.3333 14.5342 20.3333 14.5416C20.3333 14.5489 20.3333 14.5563 20.3333 14.5637C20.3333 14.571 20.3333 14.5784 20.3333 14.5858C20.3333 14.5932 20.3333 14.6006 20.3333 14.608C20.3333 14.6154 20.3333 14.6228 20.3333 14.6303C20.3333 14.6377 20.3333 14.6451 20.3333 14.6526C20.3333 14.66 20.3333 14.6675 20.3333 14.6749C20.3333 14.6824 20.3333 14.6899 20.3333 14.6974C20.3333 14.7048 20.3333 14.7123 20.3333 14.7198C20.3333 14.7273 20.3333 14.7348 20.3333 14.7424C20.3333 14.7499 20.3333 14.7574 20.3333 14.765C20.3333 14.7725 20.3333 14.78 20.3333 14.7876C20.3333 14.7952 20.3333 14.8027 20.3333 14.8103C20.3333 14.8179 20.3333 14.8255 20.3333 14.8331C20.3333 14.8407 20.3333 14.8483 20.3333 14.8559C20.3333 14.8635 20.3333 14.8711 20.3333 14.8788C20.3333 14.8864 20.3333 14.894 20.3333 14.9017C20.3333 14.9094 20.3333 14.917 20.3333 14.9247C20.3333 14.9324 20.3333 14.94 20.3333 14.9477C20.3333 14.9554 20.3333 14.9631 20.3333 14.9708C20.3333 14.9785 20.3333 14.9863 20.3333 14.994C20.3333 15.0017 20.3333 15.0095 20.3333 15.0172C20.3333 15.0249 20.3333 15.0327 20.3333 15.0405C20.3333 15.0482 20.3333 15.056 20.3333 15.0638C20.3333 15.0716 20.3333 15.0794 20.3333 15.0872C20.3333 15.095 20.3333 15.1028 20.3333 15.1106C20.3333 15.1184 20.3333 15.1263 20.3333 15.1341C20.3333 15.1419 20.3333 15.1498 20.3333 15.1577C20.3333 15.1655 20.3333 15.1734 20.3333 15.1813C20.3333 15.1891 20.3333 15.197 20.3333 15.2049C20.3333 15.2128 20.3333 15.2207 20.3333 15.2286C20.3333 15.2366 20.3333 15.2445 20.3333 15.2524C20.3333 15.2604 20.3333 15.2683 20.3333 15.2763C20.3333 15.2842 20.3333 15.2922 20.3333 15.3001C20.3333 15.3081 20.3333 15.3161 20.3333 15.3241C20.3333 15.3321 20.3333 15.3401 20.3333 15.3481C20.3333 15.3561 20.3333 15.3641 20.3333 15.3721C20.3333 15.3802 20.3333 15.3882 20.3333 15.3962C20.3333 15.4043 20.3333 15.4124 20.3333 15.4204C20.3333 15.4285 20.3333 15.4366 20.3333 15.4446C20.3333 15.4527 20.3333 15.4608 20.3333 15.4689C20.3333 15.477 20.3333 15.4851 20.3333 15.4933C20.3333 15.5014 20.3333 15.5095 20.3333 15.5176C20.3333 15.5258 20.3333 15.5339 20.3333 15.5421C20.3333 15.5503 20.3333 15.5584 20.3333 15.5666C20.3333 15.5748 20.3333 15.583 20.3333 15.5912C20.3333 15.5993 20.3333 15.6076 20.3333 15.6158C20.3333 15.624 20.3333 15.6322 20.3333 15.6404C20.3333 15.6487 20.3333 15.6569 20.3333 15.6652C20.3333 15.6734 20.3333 15.6817 20.3333 15.6899C20.3333 15.6982 20.3333 15.7065 20.3333 15.7148C20.3333 15.7231 20.3333 15.7314 20.3333 15.7397C20.3333 15.748 20.3333 15.7563 20.3333 15.7646C20.3333 15.773 20.3333 15.7813 20.3333 15.7896C20.3333 15.798 20.3333 15.8063 20.3333 15.8147C20.3333 15.8231 20.3333 15.8314 20.3333 15.8398C20.3333 15.8482 20.3333 15.8566 20.3333 15.865C20.3333 15.8734 20.3333 15.8818 20.3333 15.8902C20.3333 15.8986 20.3333 15.9071 20.3333 15.9155C20.3333 15.9239 20.3333 15.9324 20.3333 15.9408C20.3333 15.9493 20.3333 15.9577 20.3333 15.9662C20.3333 15.9747 20.3333 15.9832 20.3333 15.9917C20.3333 16.0002 20.3333 16.0087 20.3333 16.0172C20.3333 16.0257 20.3333 16.0342 20.3333 16.0427C20.3333 16.0513 20.3333 16.0598 20.3333 16.0684C20.3333 16.0769 20.3333 16.0855 20.3333 16.094C20.3333 16.1026 20.3333 16.1112 20.3333 16.1198C20.3333 16.1283 20.3333 16.1369 20.3333 16.1455C20.3333 16.1541 20.3333 16.1628 20.3333 16.1714C20.3333 16.18 20.3333 16.1886 20.3333 16.1973C20.3333 16.2059 20.3333 16.2146 20.3333 16.2232C20.3333 16.2319 20.3333 16.2405 20.3333 16.2492C20.3333 16.2579 20.3333 16.2666 20.3333 16.2753C20.3333 16.284 20.3333 16.2927 20.3333 16.3014C20.3333 16.3101 20.3333 16.3188 20.3333 16.3276C20.3333 16.3363 20.3333 16.345 20.3333 16.3538C20.3333 16.3625 20.3333 16.3713 20.3333 16.3801C20.3333 16.3888 20.3333 16.3976 20.3333 16.4064C20.3333 16.4152 20.3333 16.424 20.3333 16.4328C20.3333 16.4416 20.3333 16.4504 20.3333 16.4592C20.3333 16.4681 20.3333 16.4769 20.3333 16.4857C20.3333 16.4946 20.3333 16.5034 20.3333 16.5123C20.3333 16.5212 20.3333 16.53 20.3333 16.5389C20.3333 16.5478 20.3333 16.5567 20.3333 16.5656C20.3333 16.5745 20.3333 16.5834 20.3333 16.5923C20.3333 16.6012 20.3333 16.6101 20.3333 16.6191C20.3333 16.628 20.3333 16.6369 20.3333 16.6459C20.3333 16.6549 20.3333 16.6638 20.3333 16.6728C20.3333 16.6818 20.3333 16.6907 20.3333 16.6997C20.3333 16.7087 20.3333 16.7177 20.3333 16.7267C20.3333 16.7357 20.3333 16.7448 20.3333 16.7538C20.3333 16.7628 20.3333 16.7718 20.3333 16.7809C20.3333 16.7899 20.3333 16.799 20.3333 16.808C20.3333 16.8171 20.3333 16.8262 20.3333 16.8353C20.3333 16.8443 20.3333 16.8534 20.3333 16.8625C20.3333 16.8716 20.3333 16.8807 20.3333 16.8899C20.3333 16.899 20.3333 16.9081 20.3333 16.9172C20.3333 16.9264 20.3333 16.9355 20.3333 16.9447C20.3333 16.9538 20.3333 16.963 20.3333 16.9722C20.3333 16.9813 20.3333 16.9905 20.3333 16.9997C20.3333 17.0089 20.3333 17.0181 20.3333 17.0273C20.3333 17.0365 20.3333 17.0457 20.3333 17.055C20.3333 17.0642 20.3333 17.0734 20.3333 17.0827C20.3333 17.0919 20.3333 17.1012 20.3333 17.1104C20.3333 17.1197 20.3333 17.129 20.3333 17.1383C20.3333 17.1475 20.3333 17.1568 20.3333 17.1661C20.3333 17.1754 20.3333 17.1847 20.3333 17.1941C20.3333 17.2034 20.3333 17.2127 20.3333 17.222C20.3333 17.2314 20.3333 17.2407 20.3333 17.2501C20.3333 17.2594 20.3333 17.2688 20.3333 17.2782C20.3333 17.2875 20.3333 17.2969 20.3333 17.3063C20.3333 17.3157 20.3333 17.3251 20.3333 17.3345C20.3333 17.3439 20.3333 17.3533 20.3333 17.3628C20.3333 17.3722 20.3333 17.3816 20.3333 17.3911C20.3333 17.4005 20.3333 17.41 20.3333 17.4194C20.3333 17.4289 20.3333 17.4384 20.3333 17.4479C20.3333 17.4573 20.3333 17.4668 20.3333 17.4763C20.3333 17.4858 20.3333 17.4953 20.3333 17.5049C20.3333 17.5144 20.3333 17.5239 20.3333 17.5334C20.3333 17.543 20.3333 17.5525 20.3333 17.5621C20.3333 17.5716 20.3333 17.5812 20.3333 17.5908C20.3333 17.6003 20.3333 17.6099 20.3333 17.6195C20.3333 17.6291 20.3333 17.6387 20.3333 17.6483C20.3333 17.6579 20.3333 17.6675 20.3333 17.6772C20.3333 17.6868 20.3333 17.6964 20.3333 17.7061C20.3333 17.7157 20.3333 17.7254 20.3333 17.735C20.3333 17.7447 20.3333 17.7544 20.3333 17.7641C20.3333 17.7737 20.3333 17.7834 20.3333 17.7931C20.3333 17.8028 20.3333 17.8125 20.3333 17.8223C20.3333 17.832 20.3333 17.8417 20.3333 17.8514C20.3333 17.8612 20.3333 17.8709 20.3333 17.8807C20.3333 17.8904 20.3333 17.9002 20.3333 17.91C20.3333 17.9197 20.3333 17.9295 20.3333 17.9393C20.3333 17.9491 20.3333 17.9589 20.3333 17.9687C20.3333 17.9785 20.3333 17.9883 20.3333 17.9981C20.3333 18.008 20.3333 18.0178 20.3333 18.0276C20.3333 18.0375 20.3333 18.0473 20.3333 18.0572C20.3333 18.0671 20.3333 18.0769 20.3333 18.0868C20.3333 18.0967 20.3333 18.1066 20.3333 18.1165C20.3333 18.1264 20.3333 18.1363 20.3333 18.1462C20.3333 18.1561 20.3333 18.166 20.3333 18.176C20.3333 18.1859 20.3333 18.1959 20.3333 18.2058C20.3333 18.2158 20.3333 18.2257 20.3333 18.2357C20.3333 18.2457 20.3333 18.2556 20.3333 18.2656C20.3333 18.2756 20.3333 18.2856 20.3333 18.2956C20.3333 18.3056 20.3333 18.3156 20.3333 18.3257C20.3333 18.3357 20.3333 18.3457 20.3333 18.3558C20.3333 18.3658 20.3333 18.3758 20.3333 18.3859C20.3333 18.396 20.3333 18.406 20.3333 18.4161C20.3333 18.4262 20.3333 18.4363 20.3333 18.4464C20.3333 18.4565 20.3333 18.4666 20.3333 18.4767C20.3333 18.4868 20.3333 18.4969 20.3333 18.507C20.3333 18.5172 20.3333 18.5273 20.3333 18.5375C20.3333 18.5476 20.3333 18.5578 20.3333 18.5679C20.3333 18.5781 20.3333 18.5883 20.3333 18.5985C20.3333 18.6086 20.3333 18.6188 20.3333 18.629C20.3333 18.6392 20.3333 18.6495 20.3333 18.6597C20.3333 18.6699 20.3333 18.6801 20.3333 18.6904C20.3333 18.7006 20.3333 18.7109 20.3333 18.7211C20.3333 18.7314 20.3333 18.7416 20.3333 18.7519C20.3333 18.7622 20.3333 18.7725 20.3333 18.7828C20.3333 18.793 20.3333 18.8033 20.3333 18.8137C20.3333 18.824 20.3333 18.8343 20.3333 18.8446C20.3333 18.8549 20.3333 18.8653 20.3333 18.8756C20.3333 18.886 20.3333 18.8963 20.3333 18.9067C20.3333 18.917 20.3333 18.9274 20.3333 18.9378C20.3333 18.9482 20.3333 18.9586 20.3333 18.969C20.3333 18.9794 20.3333 18.9898 20.3333 19.0002H23C23 18.9898 23 18.9794 23 18.969C23 18.9586 23 18.9482 23 18.9378C23 18.9274 23 18.917 23 18.9067C23 18.8963 23 18.886 23 18.8756C23 18.8653 23 18.8549 23 18.8446C23 18.8343 23 18.824 23 18.8137C23 18.8033 23 18.793 23 18.7828C23 18.7725 23 18.7622 23 18.7519C23 18.7416 23 18.7314 23 18.7211C23 18.7109 23 18.7006 23 18.6904C23 18.6801 23 18.6699 23 18.6597C23 18.6495 23 18.6392 23 18.629C23 18.6188 23 18.6086 23 18.5985C23 18.5883 23 18.5781 23 18.5679C23 18.5578 23 18.5476 23 18.5375C23 18.5273 23 18.5172 23 18.507C23 18.4969 23 18.4868 23 18.4767C23 18.4666 23 18.4565 23 18.4464C23 18.4363 23 18.4262 23 18.4161C23 18.406 23 18.396 23 18.3859C23 18.3758 23 18.3658 23 18.3558C23 18.3457 23 18.3357 23 18.3257C23 18.3156 23 18.3056 23 18.2956C23 18.2856 23 18.2756 23 18.2656C23 18.2556 23 18.2457 23 18.2357C23 18.2257 23 18.2158 23 18.2058C23 18.1959 23 18.1859 23 18.176C23 18.166 23 18.1561 23 18.1462C23 18.1363 23 18.1264 23 18.1165C23 18.1066 23 18.0967 23 18.0868C23 18.0769 23 18.0671 23 18.0572C23 18.0473 23 18.0375 23 18.0276C23 18.0178 23 18.008 23 17.9981C23 17.9883 23 17.9785 23 17.9687C23 17.9589 23 17.9491 23 17.9393C23 17.9295 23 17.9197 23 17.91C23 17.9002 23 17.8904 23 17.8807C23 17.8709 23 17.8612 23 17.8514C23 17.8417 23 17.832 23 17.8223C23 17.8125 23 17.8028 23 17.7931C23 17.7834 23 17.7737 23 17.7641C23 17.7544 23 17.7447 23 17.735C23 17.7254 23 17.7157 23 17.7061C23 17.6964 23 17.6868 23 17.6772C23 17.6675 23 17.6579 23 17.6483C23 17.6387 23 17.6291 23 17.6195C23 17.6099 23 17.6003 23 17.5908C23 17.5812 23 17.5716 23 17.5621C23 17.5525 23 17.543 23 17.5334C23 17.5239 23 17.5144 23 17.5049C23 17.4953 23 17.4858 23 17.4763C23 17.4668 23 17.4573 23 17.4479C23 17.4384 23 17.4289 23 17.4194C23 17.41 23 17.4005 23 17.3911C23 17.3816 23 17.3722 23 17.3628C23 17.3533 23 17.3439 23 17.3345C23 17.3251 23 17.3157 23 17.3063C23 17.2969 23 17.2875 23 17.2782C23 17.2688 23 17.2594 23 17.2501C23 17.2407 23 17.2314 23 17.222C23 17.2127 23 17.2034 23 17.1941C23 17.1847 23 17.1754 23 17.1661C23 17.1568 23 17.1475 23 17.1383C23 17.129 23 17.1197 23 17.1104C23 17.1012 23 17.0919 23 17.0827C23 17.0734 23 17.0642 23 17.055C23 17.0457 23 17.0365 23 17.0273C23 17.0181 23 17.0089 23 16.9997C23 16.9905 23 16.9813 23 16.9722C23 16.963 23 16.9538 23 16.9447C23 16.9355 23 16.9264 23 16.9172C23 16.9081 23 16.899 23 16.8899C23 16.8807 23 16.8716 23 16.8625C23 16.8534 23 16.8443 23 16.8353C23 16.8262 23 16.8171 23 16.808C23 16.799 23 16.7899 23 16.7809C23 16.7718 23 16.7628 23 16.7538C23 16.7448 23 16.7357 23 16.7267C23 16.7177 23 16.7087 23 16.6997C23 16.6907 23 16.6818 23 16.6728C23 16.6638 23 16.6549 23 16.6459C23 16.6369 23 16.628 23 16.6191C23 16.6101 23 16.6012 23 16.5923C23 16.5834 23 16.5745 23 16.5656C23 16.5567 23 16.5478 23 16.5389C23 16.53 23 16.5212 23 16.5123C23 16.5034 23 16.4946 23 16.4857C23 16.4769 23 16.4681 23 16.4592C23 16.4504 23 16.4416 23 16.4328C23 16.424 23 16.4152 23 16.4064C23 16.3976 23 16.3888 23 16.3801C23 16.3713 23 16.3625 23 16.3538C23 16.345 23 16.3363 23 16.3276C23 16.3188 23 16.3101 23 16.3014C23 16.2927 23 16.284 23 16.2753C23 16.2666 23 16.2579 23 16.2492C23 16.2405 23 16.2319 23 16.2232C23 16.2146 23 16.2059 23 16.1973C23 16.1886 23 16.18 23 16.1714C23 16.1628 23 16.1541 23 16.1455C23 16.1369 23 16.1283 23 16.1198C23 16.1112 23 16.1026 23 16.094C23 16.0855 23 16.0769 23 16.0684C23 16.0598 23 16.0513 23 16.0427C23 16.0342 23 16.0257 23 16.0172C23 16.0087 23 16.0002 23 15.9917C23 15.9832 23 15.9747 23 15.9662C23 15.9577 23 15.9493 23 15.9408C23 15.9324 23 15.9239 23 15.9155C23 15.9071 23 15.8986 23 15.8902C23 15.8818 23 15.8734 23 15.865C23 15.8566 23 15.8482 23 15.8398C23 15.8314 23 15.8231 23 15.8147C23 15.8063 23 15.798 23 15.7896C23 15.7813 23 15.773 23 15.7646C23 15.7563 23 15.748 23 15.7397C23 15.7314 23 15.7231 23 15.7148C23 15.7065 23 15.6982 23 15.6899C23 15.6817 23 15.6734 23 15.6652C23 15.6569 23 15.6487 23 15.6404C23 15.6322 23 15.624 23 15.6158C23 15.6076 23 15.5993 23 15.5912C23 15.583 23 15.5748 23 15.5666C23 15.5584 23 15.5503 23 15.5421C23 15.5339 23 15.5258 23 15.5176C23 15.5095 23 15.5014 23 15.4933C23 15.4851 23 15.477 23 15.4689C23 15.4608 23 15.4527 23 15.4446C23 15.4366 23 15.4285 23 15.4204C23 15.4124 23 15.4043 23 15.3962C23 15.3882 23 15.3802 23 15.3721C23 15.3641 23 15.3561 23 15.3481C23 15.3401 23 15.3321 23 15.3241C23 15.3161 23 15.3081 23 15.3001C23 15.2922 23 15.2842 23 15.2763C23 15.2683 23 15.2604 23 15.2524C23 15.2445 23 15.2366 23 15.2286C23 15.2207 23 15.2128 23 15.2049C23 15.197 23 15.1891 23 15.1813C23 15.1734 23 15.1655 23 15.1577C23 15.1498 23 15.1419 23 15.1341C23 15.1263 23 15.1184 23 15.1106C23 15.1028 23 15.095 23 15.0872C23 15.0794 23 15.0716 23 15.0638C23 15.056 23 15.0482 23 15.0405C23 15.0327 23 15.0249 23 15.0172C23 15.0095 23 15.0017 23 14.994C23 14.9863 23 14.9785 23 14.9708C23 14.9631 23 14.9554 23 14.9477C23 14.94 23 14.9324 23 14.9247C23 14.917 23 14.9094 23 14.9017C23 14.894 23 14.8864 23 14.8788C23 14.8711 23 14.8635 23 14.8559C23 14.8483 23 14.8407 23 14.8331C23 14.8255 23 14.8179 23 14.8103C23 14.8027 23 14.7952 23 14.7876C23 14.78 23 14.7725 23 14.765C23 14.7574 23 14.7499 23 14.7424C23 14.7348 23 14.7273 23 14.7198C23 14.7123 23 14.7048 23 14.6974C23 14.6899 23 14.6824 23 14.6749C23 14.6675 23 14.66 23 14.6526C23 14.6451 23 14.6377 23 14.6303C23 14.6228 23 14.6154 23 14.608C23 14.6006 23 14.5932 23 14.5858C23 14.5784 23 14.571 23 14.5637C23 14.5563 23 14.5489 23 14.5416C23 14.5342 23 14.5269 23 14.5196C23 14.5122 23 14.5049 23 14.4976C23 14.4903 23 14.483 23 14.4757C23 14.4684 23 14.4611 23 14.4538C23 14.4465 23 14.4393 23 14.432C23 14.4248 23 14.4175 23 14.4103C23 14.403 23 14.3958 23 14.3886C23 14.3814 23 14.3742 23 14.367C23 14.3598 23 14.3526 23 14.3454C23 14.3382 23 14.331 23 14.3239C23 14.3167 23 14.3096 23 14.3024C23 14.2953 23 14.2881 23 14.281C23 14.2739 23 14.2668 23 14.2597C23 14.2526 23 14.2455 23 14.2384C23 14.2313 23 14.2242 23 14.2172C23 14.2101 23 14.203 23 14.196C23 14.1889 23 14.1819 23 14.1749C23 14.1678 23 14.1608 23 14.1538C23 14.1468 23 14.1398 23 14.1328C23 14.1258 23 14.1188 23 14.1119C23 14.1049 23 14.0979 23 14.091C23 14.084 23 14.0771 23 14.0702C23 14.0632 23 14.0563 23 14.0494C23 14.0425 23 14.0356 23 14.0287C23 14.0218 23 14.0149 23 14.008C23 14.0011 23 13.9943 23 13.9874C23 13.9805 23 13.9737 23 13.9669C23 13.96 23 13.9532 23 13.9464C23 13.9396 23 13.9327 23 13.9259C23 13.9191 23 13.9124 23 13.9056C23 13.8988 23 13.892 23 13.8853C23 13.8785 23 13.8717 23 13.865C23 13.8583 23 13.8515 23 13.8448C23 13.8381 23 13.8314 23 13.8247C23 13.818 23 13.8113 23 13.8046C23 13.7979 23 13.7912 23 13.7845C23 13.7779 23 13.7712 23 13.7646C23 13.7579 23 13.7513 23 13.7447C23 13.738 23 13.7314 23 13.7248C23 13.7182 23 13.7116 23 13.705C23 13.6984 23 13.6918 23 13.6853C23 13.6787 23 13.6721 23 13.6656C23 13.659 23 13.6525 23 13.646C23 13.6394 23 13.6329 23 13.6264C23 13.6199 23 13.6134 23 13.6069C23 13.6004 23 13.5939 23 13.5874C23 13.581 23 13.5745 23 13.568C23 13.5616 23 13.5551 23 13.5487C23 13.5423 23 13.5358 23 13.5294C23 13.523 23 13.5166 23 13.5102C23 13.5038 23 13.4974 23 13.491C23 13.4847 23 13.4783 23 13.4719C23 13.4656 23 13.4592 23 13.4529C23 13.4465 23 13.4402 23 13.4339C23 13.4276 23 13.4213 23 13.415C23 13.4086 23 13.4024 23 13.3961C23 13.3898 23 13.3835 23 13.3773C23 13.371 23 13.3647 23 13.3585C23 13.3523 23 13.346 23 13.3398C23 13.3336 23 13.3274 23 13.3212C23 13.3149 23 13.3088 23 13.3026C23 13.2964 23 13.2902 23 13.284C23 13.2779 23 13.2717 23 13.2656C23 13.2594 23 13.2533 23 13.2472C23 13.241 23 13.2349 23 13.2288C23 13.2227 23 13.2166 23 13.2105C23 13.2044 23 13.1983 23 13.1923C23 13.1862 23 13.1801 23 13.1741C23 13.168 23 13.162 23 13.156C23 13.1499 23 13.1439 23 13.1379C23 13.1319 23 13.1259 23 13.1199C23 13.1139 23 13.1079 23 13.1019C23 13.096 23 13.09 23 13.0841C23 13.0781 23 13.0722 23 13.0662C23 13.0603 23 13.0544 23 13.0485C23 13.0425 23 13.0366 23 13.0307C23 13.0248 23 13.019 23 13.0131C23 13.0072 23 13.0013 23 12.9955C23 12.9896 23 12.9838 23 12.9779C23 12.9721 23 12.9663 23 12.9605C23 12.9546 23 12.9488 23 12.943C23 12.9372 23 12.9315 23 12.9257C23 12.9199 23 12.9141 23 12.9084C23 12.9026 23 12.8969 23 12.8911C23 12.8854 23 12.8796 23 12.8739C23 12.8682 23 12.8625 23 12.8568C23 12.8511 23 12.8454 23 12.8397C23 12.834 23 12.8284 23 12.8227C23 12.817 23 12.8114 23 12.8058C23 12.8001 23 12.7945 23 12.7889C23 12.7832 23 12.7776 23 12.772C23 12.7664 23 12.7608 23 12.7552C23 12.7497 23 12.7441 23 12.7385C23 12.7329 23 12.7274 23 12.7218C23 12.7163 23 12.7108 23 12.7052C23 12.6997 23 12.6942 23 12.6887C23 12.6832 23 12.6777 23 12.6722C23 12.6667 23 12.6612 23 12.6558C23 12.6503 23 12.6449 23 12.6394C23 12.634 23 12.6285 23 12.6231C23 12.6177 23 12.6123 23 12.6068C23 12.6014 23 12.596 23 12.5907C23 12.5853 23 12.5799 23 12.5745C23 12.5691 23 12.5638 23 12.5584C23 12.5531 23 12.5478 23 12.5424C23 12.5371 23 12.5318 23 12.5265C23 12.5212 23 12.5159 23 12.5106C23 12.5053 23 12.5 23 12.4947C23 12.4894 23 12.4842 23 12.4789C23 12.4737 23 12.4684 23 12.4632C23 12.458 23 12.4528 23 12.4475C23 12.4423 23 12.4371 23 12.4319C23 12.4268 23 12.4216 23 12.4164C23 12.4112 23 12.4061 23 12.4009C23 12.3958 23 12.3906 23 12.3855C23 12.3803 23 12.3752 23 12.3701C23 12.365 23 12.3599 23 12.3548C23 12.3497 23 12.3446 23 12.3395C23 12.3345 23 12.3294 23 12.3244C23 12.3193 23 12.3143 23 12.3092C23 12.3042 23 12.2992 23 12.2941C23 12.2891 23 12.2841 23 12.2791C23 12.2741 23 12.2691 23 12.2642C23 12.2592 23 12.2542 23 12.2493C23 12.2443 23 12.2394 23 12.2344C23 12.2295 23 12.2246 23 12.2197C23 12.2147 23 12.2098 23 12.2049C23 12.2 23 12.1952 23 12.1903C23 12.1854 23 12.1805 23 12.1757C23 12.1708 23 12.166 23 12.1611C23 12.1563 23 12.1515 23 12.1467C23 12.1418 23 12.137 23 12.1322C23 12.1274 23 12.1226 23 12.1179C23 12.1131 23 12.1083 23 12.1036C23 12.0988 23 12.0941 23 12.0893C23 12.0846 23 12.0798 23 12.0751C23 12.0704 23 12.0657 23 12.061C23 12.0563 23 12.0516 23 12.0469C23 12.0423 23 12.0376 23 12.0329C23 12.0283 23 12.0236 23 12.019C23 12.0143 23 12.0097 23 12.0051C23 12.0005 23 11.9959 23 11.9913C23 11.9867 23 11.9821 23 11.9775C23 11.9729 23 11.9683 23 11.9638C23 11.9592 23 11.9547 23 11.9501C23 11.9456 23 11.9411 23 11.9365C23 11.932 23 11.9275 23 11.923C23 11.9185 23 11.914 23 11.9095C23 11.9051 23 11.9006 23 11.8961C23 11.8917 23 11.8872 23 11.8828C23 11.8783 23 11.8739 23 11.8695C23 11.8651 23 11.8607 23 11.8563C23 11.8519 23 11.8475 23 11.8431C23 11.8387 23 11.8343 23 11.83C23 11.8256 23 11.8213 23 11.8169C23 11.8126 23 11.8082 23 11.8039C23 11.7996 23 11.7953 23 11.791C23 11.7867 23 11.7824 23 11.7781C23 11.7738 23 11.7696 23 11.7653C23 11.761 23 11.7568 23 11.7525C23 11.7483 23 11.7441 23 11.7399C23 11.7356 23 11.7314 23 11.7272C23 11.723 23 11.7188 23 11.7146C23 11.7105 23 11.7063 23 11.7021C23 11.698 23 11.6938 23 11.6897C23 11.6855 23 11.6814 23 11.6773C23 11.6732 23 11.669 23 11.6649C23 11.6608 23 11.6568 23 11.6527C23 11.6486 23 11.6445 23 11.6405C23 11.6364 23 11.6323 23 11.6283C23 11.6243 23 11.6202 23 11.6162C23 11.6122 23 11.6082 23 11.6042C23 11.6002 23 11.5962 23 11.5922C23 11.5882 23 11.5843 23 11.5803C23 11.5763 23 11.5724 23 11.5684C23 11.5645 23 11.5606 23 11.5566C23 11.5527 23 11.5488 23 11.5449C23 11.541 23 11.5371 23 11.5332C23 11.5294 23 11.5255 23 11.5216C23 11.5178 23 11.5139 23 11.5101C23 11.5062 23 11.5024 23 11.4986C23 11.4948 23 11.491 23 11.4872C23 11.4833 23 11.4796 23 11.4758C23 11.472 23 11.4682 23 11.4645C23 11.4607 23 11.457 23 11.4532C23 11.4495 23 11.4457 23 11.442C23 11.4383 23 11.4346 23 11.4309C23 11.4272 23 11.4235 23 11.4198C23 11.4162 23 11.4125 23 11.4088C23 11.4052 23 11.4015 23 11.3979C23 11.3942 23 11.3906 23 11.387C23 11.3834 23 11.3798 23 11.3762C23 11.3726 23 11.369 23 11.3654C23 11.3618 23 11.3582 23 11.3547C23 11.3511 23 11.3476 23 11.344C23 11.3405 23 11.337 23 11.3335C23 11.3299 23 11.3264 23 11.3229C23 11.3194 23 11.3159 23 11.3125C23 11.309 23 11.3055 23 11.3021C23 11.2986 23 11.2952 23 11.2917C23 11.2883 23 11.2849 23 11.2814C23 11.278 23 11.2746 23 11.2712C23 11.2678 23 11.2644 23 11.2611C23 11.2577 23 11.2543 23 11.251C23 11.2476 23 11.2443 23 11.2409C23 11.2376 23 11.2343 23 11.2309C23 11.2276 23 11.2243 23 11.221C23 11.2177 23 11.2144 23 11.2112C23 11.2079 23 11.2046 23 11.2014C23 11.1981 23 11.1949 23 11.1916C23 11.1884 23 11.1852 23 11.182C23 11.1788 23 11.1755 23 11.1724C23 11.1692 23 11.166 23 11.1628C23 11.1596 23 11.1565 23 11.1533C23 11.1502 23 11.147 23 11.1439C23 11.1407 23 11.1376 23 11.1345C23 11.1314 23 11.1283 23 11.1252C23 11.1221 23 11.119 23 11.116C23 11.1129 23 11.1098 23 11.1068C23 11.1037 23 11.1007 23 11.0976C23 11.0946 23 11.0916 23 11.0886C23 11.0856 23 11.0826 23 11.0796C23 11.0766 23 11.0736 23 11.0706C23 11.0677 23 11.0647 23 11.0618C23 11.0588 23 11.0559 23 11.0529C23 11.05 23 11.0471 23 11.0442C23 11.0413 23 11.0384 23 11.0355C23 11.0326 23 11.0297 23 11.0269C23 11.024 23 11.0211 23 11.0183C23 11.0154 23 11.0126 23 11.0098C23 11.0069 23 11.0041 23 11.0013C23 10.9985 23 10.9957 23 10.9929C23 10.9901 23 10.9874 23 10.9846C23 10.9818 23 10.9791 23 10.9763C23 10.9736 23 10.9708 23 10.9681C23 10.9654 23 10.9627 23 10.96C23 10.9573 23 10.9546 23 10.9519C23 10.9492 23 10.9465 23 10.9439C23 10.9412 23 10.9386 23 10.9359C23 10.9333 23 10.9306 23 10.928C23 10.9254 23 10.9228 23 10.9202C23 10.9176 23 10.915 23 10.9124C23 10.9098 23 10.9072 23 10.9047C23 10.9021 23 10.8996 23 10.897C23 10.8945 23 10.892 23 10.8894C23 10.8869 23 10.8844 23 10.8819C23 10.8794 23 10.8769 23 10.8744C23 10.872 23 10.8695 23 10.867C23 10.8646 23 10.8621 23 10.8597C23 10.8573 23 10.8548 23 10.8524C23 10.85 23 10.8476 23 10.8452C23 10.8428 23 10.8404 23 10.838C23 10.8356 23 10.8333 23 10.8309C23 10.8286 23 10.8262 23 10.8239C23 10.8216 23 10.8192 23 10.8169C23 10.8146 23 10.8123 23 10.81C23 10.8077 23 10.8054 23 10.8032C23 10.8009 23 10.7986 23 10.7964C23 10.7941 23 10.7919 23 10.7896C23 10.7874 23 10.7852 23 10.783C23 10.7808 23 10.7786 23 10.7764C23 10.7742 23 10.772 23 10.7698C23 10.7677 23 10.7655 23 10.7633C23 10.7612 23 10.7591 23 10.7569C23 10.7548 23 10.7527 23 10.7506C23 10.7485 23 10.7464 23 10.7443C23 10.7422 23 10.7401 23 10.738C23 10.736 23 10.7339 23 10.7319C23 10.7298 23 10.7278 23 10.7258C23 10.7237 23 10.7217 23 10.7197C23 10.7177 23 10.7157 23 10.7137C23 10.7118 23 10.7098 23 10.7078C23 10.7059 23 10.7039 23 10.702C23 10.7 23 10.6981 23 10.6962C23 10.6942 23 10.6923 23 10.6904C23 10.6885 23 10.6866 23 10.6848C23 10.6829 23 10.681 23 10.6791C23 10.6773 23 10.6754 23 10.6736C23 10.6718 23 10.6699 23 10.6681C23 10.6663 23 10.6645 23 10.6627C23 10.6609 23 10.6591 23 10.6573C23 10.6556 23 10.6538 23 10.652C23 10.6503 23 10.6485 23 10.6468C23 10.6451 23 10.6433 23 10.6416C23 10.6399 23 10.6382 23 10.6365C23 10.6348 23 10.6331 23 10.6315C23 10.6298 23 10.6281 23 10.6265C23 10.6248 23 10.6232 23 10.6215C23 10.6199 23 10.6183 23 10.6167C23 10.6151 23 10.6135 23 10.6119C23 10.6103 23 10.6087 23 10.6071C23 10.6056 23 10.604 23 10.6025C23 10.6009 23 10.5994 23 10.5979C23 10.5963 23 10.5948 23 10.5933C23 10.5918 23 10.5903 23 10.5888C23 10.5873 23 10.5859 23 10.5844C23 10.5829 23 10.5815 23 10.58C23 10.5786 23 10.5772 23 10.5757C23 10.5743 23 10.5729 23 10.5715C23 10.5701 23 10.5687 23 10.5673C23 10.5659 23 10.5646 23 10.5632C23 10.5618 23 10.5605 23 10.5592C23 10.5578 23 10.5565 23 10.5552C23 10.5539 23 10.5525 23 10.5513C23 10.55 23 10.5487 23 10.5474C23 10.5461 23 10.5448 23 10.5436C23 10.5423 23 10.5411 23 10.5399C23 10.5386 23 10.5374 23 10.5362C23 10.535 23 10.5338 23 10.5326C23 10.5314 23 10.5302 23 10.529C23 10.5279 23 10.5267 23 10.5255C23 10.5244 23 10.5233 23 10.5221C23 10.521 23 10.5199 23 10.5188C23 10.5177 23 10.5166 23 10.5155C23 10.5144 23 10.5133 23 10.5122C23 10.5112 23 10.5101 23 10.5091C23 10.508 23 10.507 23 10.506C23 10.5049 23 10.5039 23 10.5029C23 10.5019 23 10.5009 23 10.4999C23 10.499 23 10.498 23 10.497C23 10.4961 23 10.4951 23 10.4942C23 10.4932 23 10.4923 23 10.4914C23 10.4905 23 10.4896 23 10.4887C23 10.4878 23 10.4869 23 10.486C23 10.4851 23 10.4842 23 10.4834C23 10.4825 23 10.4817 23 10.4809C23 10.48 23 10.4792 23 10.4784C23 10.4776 23 10.4768 23 10.476C23 10.4752 23 10.4744 23 10.4736C23 10.4728 23 10.4721 23 10.4713C23 10.4706 23 10.4698 23 10.4691C23 10.4684 23 10.4677 23 10.467C23 10.4662 23 10.4655 23 10.4649C23 10.4642 23 10.4635 23 10.4628C23 10.4622 23 10.4615 23 10.4609C23 10.4602 23 10.4596 23 10.459C23 10.4583 23 10.4577 23 10.4571C23 10.4565 23 10.4559 23 10.4553C23 10.4547 23 10.4542 23 10.4536C23 10.4531 23 10.4525 23 10.452C23 10.4514 23 10.4509 23 10.4504C23 10.4499 23 10.4494 23 10.4489C23 10.4484 23 10.4479 23 10.4474C23 10.4469 23 10.4465 23 10.446C23 10.4455 23 10.4451 23 10.4447H20.3333ZM20.3333 19.0002C20.3333 20.4921 21.0972 21.6884 22.1933 22.3963C23.2663 23.0892 24.6386 23.312 25.9645 23.0082C28.7605 22.3674 31 19.5699 31 14.6669H28.3333C28.3333 18.7639 26.5729 20.133 25.3688 20.4089C24.6947 20.5634 24.0671 20.432 23.64 20.1562C23.2361 19.8953 23 19.5083 23 19.0002H20.3333Z" fill="white"/>
</svg>
