<svg width="70" height="70" viewBox="0 0 70 70" fill="none" xmlns="http://www.w3.org/2000/svg">
<path d="M28.3202 32.9291C27.771 32.3799 27.0261 32.0714 26.2494 32.0714C25.4727 32.0714 24.7278 32.3799 24.1786 32.9291C23.6293 33.4784 23.3208 34.2233 23.3208 35C23.3208 35.7767 23.6293 36.5216 24.1786 37.0708L32.9286 45.8208C33.2011 46.0911 33.5243 46.305 33.8797 46.4501C34.235 46.5953 34.6155 46.6689 34.9994 46.6666C35.3987 46.654 35.7911 46.5594 36.1524 46.3888C36.5136 46.2183 36.8359 45.9753 37.0994 45.675L57.5161 22.3416C57.9875 21.7564 58.2148 21.0117 58.1506 20.2629C58.0864 19.5141 57.7356 18.819 57.1714 18.3225C56.6072 17.826 55.8732 17.5665 55.1223 17.598C54.3714 17.6295 53.6617 17.9496 53.1411 18.4916L34.9994 39.4916L28.3202 32.9291Z" fill="url(#paint0_linear_179_4672)"/>
<path d="M61.2495 32.0833C60.476 32.0833 59.7341 32.3906 59.1871 32.9376C58.6402 33.4846 58.3329 34.2265 58.3329 35C58.3329 41.1884 55.8745 47.1233 51.4987 51.4992C47.1228 55.875 41.1879 58.3333 34.9995 58.3333C30.3915 58.3312 25.8872 56.9647 22.0547 54.4062C18.2222 51.8476 15.2331 48.2115 13.4643 43.9564C11.6955 39.7013 11.2262 35.0178 12.1156 30.4964C13.0051 25.9749 15.2133 21.8181 18.462 18.55C20.6224 16.3607 23.1978 14.6243 26.0374 13.4424C28.877 12.2605 31.9238 11.6568 34.9995 11.6667C36.8646 11.6783 38.7228 11.8935 40.5412 12.3083C40.9217 12.426 41.3223 12.4646 41.7183 12.4215C42.1143 12.3784 42.4973 12.2547 42.8436 12.058C43.19 11.8613 43.4923 11.5957 43.7321 11.2777C43.9719 10.9596 44.144 10.5958 44.2377 10.2087C44.3315 9.82155 44.345 9.41933 44.2774 9.02679C44.2098 8.63426 44.0625 8.25974 43.8446 7.92631C43.6267 7.59289 43.3428 7.30763 43.0104 7.08812C42.6781 6.86861 42.3042 6.71951 41.912 6.65C39.6462 6.11696 37.3272 5.84298 34.9995 5.83334C29.2372 5.86327 23.6128 7.59944 18.8362 10.8227C14.0596 14.046 10.3449 18.612 8.16072 23.9445C5.97657 29.2769 5.42092 35.1369 6.56389 40.7848C7.70686 46.4327 10.4972 51.6155 14.5829 55.6792C19.9982 61.097 27.3394 64.1488 34.9995 64.1667C42.735 64.1667 50.1537 61.0938 55.6235 55.6239C61.0933 50.1541 64.1662 42.7355 64.1662 35C64.1662 34.2265 63.8589 33.4846 63.3119 32.9376C62.765 32.3906 62.0231 32.0833 61.2495 32.0833Z" fill="url(#paint1_linear_179_4672)"/>
<defs>
<linearGradient id="paint0_linear_179_4672" x1="23.3102" y1="32.2767" x2="58.1613" y2="32.275" gradientUnits="userSpaceOnUse">
<stop stop-color="#736BFF"/>
<stop offset="1" stop-color="#AC59FF"/>
</linearGradient>
<linearGradient id="paint1_linear_179_4672" x1="5.96661" y1="35.2922" x2="64.1662" y2="35.2899" gradientUnits="userSpaceOnUse">
<stop stop-color="#736BFF"/>
<stop offset="1" stop-color="#AC59FF"/>
</linearGradient>
</defs>
</svg>
