<svg width="60" height="60" viewBox="0 0 60 60" fill="none" xmlns="http://www.w3.org/2000/svg">
<path d="M14.9999 0.000549037C6.71623 0.000549037 0 6.71578 0 15.0004V45.0011C0 53.2853 6.71623 60.0005 14.9999 60.0005H45.0007C53.2848 60.0005 60.001 53.2853 60.001 45.0011V0.000549037H14.9999Z" fill="#B1EC52"/>
<path d="M16.3988 23.9594C15.9081 21.8135 18.0491 19.9148 20.8184 19.9148C23.313 19.9148 25.8135 20.4741 26.7649 23.9522H29.9627V29.26C25.9758 25.9828 17.3322 28.039 16.3988 23.9594V23.9594ZM49.5797 22.49H42.3761L35.5231 29.9954V15.0002H29.9627V18.6335C29.7813 18.3993 29.59 18.1666 29.3757 17.9395C27.3537 15.799 24.4407 14.7137 20.7161 14.7137C16.4088 14.7137 13.9599 16.6415 12.6638 18.2583C11.0539 20.2656 10.3352 23.0055 10.8326 25.2379C12.1211 31.0169 17.4836 31.9398 21.423 32.452C24.533 32.8565 27.5085 33.4211 27.4295 36.1932C27.3471 39.0701 24.1042 39.7774 21.9756 39.7774C16.4317 39.7774 16.2447 35.6796 16.2447 35.6796H10.2823C10.3695 37.2185 10.8345 39.689 12.729 41.809C14.8033 44.1319 17.9144 45.309 21.9756 45.309C25.0909 45.309 27.9287 44.2942 29.9627 42.492V44.9687H35.5231V37.8902L37.4905 35.7382L43.1067 44.9687H49.5777L41.405 31.4495L49.5797 22.49" fill="#424B52"/>
</svg>
