<svg width="37" height="36" viewBox="0 0 37 36" fill="none" xmlns="http://www.w3.org/2000/svg">
<path d="M7.1217 6.95809C7.1217 6.70599 7.1217 6.55473 7.1217 6.40347C7.1217 6.30263 7.17388 6.15136 7.27822 6.0001C7.43474 5.69758 7.85212 5.54633 8.58253 5.54633C9.36512 5.54633 9.83467 5.748 9.93901 6.15137C9.99118 6.35305 10.0434 6.60515 10.0434 6.95809V15.832C10.0434 16.0841 10.0434 16.2858 10.0434 16.3867C10.0434 16.4875 9.99119 16.6388 9.88684 16.79C9.73033 17.0925 9.31295 17.2438 8.58253 17.2438C7.79995 17.2438 7.38256 17.0421 7.22605 16.6388C7.17387 16.4875 7.1217 16.185 7.1217 15.832V6.95809Z" fill="#736BFF"/>
<path d="M10.957 6.95809C10.957 6.70599 10.957 6.55473 10.957 6.40347C10.957 6.30263 11.0092 6.15136 11.1136 6.0001C11.2701 5.69758 11.6874 5.54633 12.4179 5.54633C13.2004 5.54633 13.67 5.748 13.7743 6.15137C13.8265 6.35305 13.8787 6.60515 13.8787 6.95809V8.26901C13.8787 8.52111 13.8787 8.7228 13.8787 8.82364C13.8787 8.92448 13.8265 9.07574 13.7222 9.227C13.5657 9.52952 13.1483 9.68078 12.4179 9.68078C11.6353 9.68078 11.2179 9.4791 11.0614 9.07574C11.0092 8.92448 10.957 8.62195 10.957 8.26901V6.95809Z" fill="#736BFF"/>
<path d="M28.1475 6.00026C28.2519 6.15152 28.304 6.30278 28.304 6.45405C28.304 6.60531 28.304 6.75656 28.304 7.00866V15.8826C28.304 16.6389 28.0954 17.0423 27.678 17.1935C27.4693 17.244 27.2084 17.2944 26.8954 17.2944C26.5824 17.2944 26.3215 17.244 26.1128 17.1935C25.9041 17.1431 25.7998 17.0927 25.6954 16.9919C25.5911 16.9414 25.5389 16.7902 25.4867 16.6893C25.4346 16.4877 25.3824 16.2356 25.3824 15.8826V10.4372C25.1215 10.7902 24.7042 11.2944 24.1824 12.0003C23.6607 12.7061 23.2955 13.1599 23.1912 13.3616C23.0346 13.5633 22.9303 13.6641 22.8781 13.7145C22.8259 13.765 22.6694 13.8658 22.4607 14.0171C22.252 14.1179 21.9912 14.2188 21.7825 14.2188C21.5738 14.2188 21.3129 14.1683 21.1043 14.0675C20.8956 13.9666 20.739 13.8658 20.6869 13.765L20.5304 13.6137C20.3217 13.3616 19.8521 12.7566 19.226 11.8994C18.6 11.0423 18.2348 10.5885 18.1826 10.4877V15.8826C18.1826 16.1347 18.1826 16.286 18.1826 16.4372C18.1826 16.5381 18.1304 16.6893 18.0261 16.8406C17.8696 17.1431 17.4522 17.2944 16.7218 17.2944C16.0435 17.2944 15.6261 17.1431 15.4696 16.8406C15.3653 16.6893 15.3131 16.5381 15.3131 16.4372C15.3131 16.286 15.3131 16.1347 15.3131 15.8826V7.00866C15.3131 6.75656 15.3131 6.60531 15.3131 6.45405C15.3131 6.3532 15.3653 6.20194 15.4696 6.05068C15.6261 5.79858 16.0435 5.64732 16.7739 5.64732C17.087 5.64732 17.3478 5.69774 17.5565 5.74816C17.7652 5.79858 17.9217 5.89942 17.9739 5.94984L18.0783 6.05068L21.8347 10.7902C23.7129 8.42043 24.965 6.80698 25.5911 6.05068C25.7998 5.74816 26.2172 5.5969 26.8954 5.5969C27.5736 5.54648 27.991 5.69774 28.1475 6.00026Z" fill="#736BFF"/>
<path d="M12.3913 18.126C14.0087 18.126 15.4173 18.6806 16.6173 19.8403C17.8173 20.9999 18.4433 22.4117 18.4433 24.0756C18.4433 25.7394 17.8694 27.2016 16.7216 28.3613C15.5738 29.5714 14.1652 30.126 12.4957 30.126C10.8262 30.126 9.41749 29.5209 8.21752 28.3613C7.06973 27.2016 6.44366 25.7898 6.44366 24.1764C6.44366 23.2688 6.60018 22.4621 6.91321 21.7058C7.22625 20.9495 7.6958 20.294 8.21752 19.7898C8.79142 19.2856 9.41749 18.8823 10.0957 18.5798C10.8783 18.2772 11.6087 18.126 12.3913 18.126ZM9.36532 24.126C9.36532 25.084 9.67835 25.8403 10.3044 26.4453C10.9305 27.0504 11.6609 27.3529 12.4435 27.3529C13.2261 27.3529 13.9043 27.0503 14.5826 26.4957C15.2086 25.9411 15.5217 25.1344 15.5217 24.1764C15.5217 23.2184 15.2086 22.4117 14.5826 21.8571C13.9565 21.252 13.2261 20.9999 12.4435 20.9999C11.6609 20.9999 10.9827 21.3024 10.3044 21.9075C9.67835 22.4117 9.36532 23.2184 9.36532 24.126Z" fill="#736BFF"/>
<path d="M24.7039 24.0756C26.3734 25.6386 27.5734 26.7982 28.3038 27.605C28.669 28.0083 28.8255 28.3108 28.8255 28.6134C28.8255 28.9159 28.6168 29.2184 28.1473 29.5714C27.7299 29.9243 27.3647 30.126 27.0516 30.126C26.7908 30.126 26.4256 29.9243 26.0604 29.4705L22.4083 25.4873V28.6134C22.4083 28.8655 22.4083 29.0672 22.4083 29.168C22.4083 29.2688 22.3561 29.4201 22.2518 29.5714C22.0953 29.8739 21.6779 30.0251 20.9475 30.0251C20.1649 30.0251 19.7475 29.8235 19.591 29.4201C19.5388 29.2688 19.4866 28.9663 19.4866 28.6134V19.7394C19.4866 19.4873 19.4866 19.3361 19.4866 19.1848C19.4866 19.084 19.5388 18.9327 19.6432 18.7814C19.7997 18.4789 20.217 18.3277 20.9475 18.3277C21.7301 18.3277 22.1996 18.5293 22.3039 18.9327C22.3561 19.1344 22.4083 19.3865 22.4083 19.7394V22.7646C23.9213 21.1512 25.1213 19.7898 26.0604 18.7814C26.4256 18.3277 26.7908 18.126 27.0516 18.126C27.3125 18.126 27.6777 18.3277 28.1473 18.6806C28.5646 19.0335 28.8255 19.3865 28.8255 19.6386C28.8255 19.8907 28.669 20.2436 28.3559 20.5966C27.7299 21.3025 26.7386 22.3108 25.3821 23.5209L24.7039 24.0756Z" fill="#736BFF"/>
<path fill-rule="evenodd" clip-rule="evenodd" d="M7.33023 2.77311C4.88793 2.77311 2.86948 4.72376 2.86948 7.08404V28.916C2.86948 31.2762 4.88792 33.2269 7.33023 33.2269H27.9905C30.4328 33.2269 32.4513 31.2762 32.4513 28.916V7.08404C32.4513 4.72376 30.4328 2.77311 27.9905 2.77311H7.33023ZM0 7.08404C0 3.19221 3.30315 0 7.33023 0H27.9905C32.0176 0 35.3208 3.19221 35.3208 7.08404V28.916C35.3208 32.8078 32.0176 36 27.9905 36H7.33023C3.30316 36 0 32.8078 0 28.916V7.08404Z" fill="#736BFF"/>
</svg>
