<svg width="36" height="23" viewBox="0 0 36 23" fill="none" xmlns="http://www.w3.org/2000/svg">
<path d="M20.8596 22.3C20.2596 22.3 19.793 22.1 19.4596 21.7C19.1263 21.2333 18.993 20.7 19.0596 20.1L21.7596 3.2C21.893 2.33333 22.193 1.6 22.6596 0.999999C23.193 0.333333 23.9596 0 24.9596 0H34.1596C34.693 0 35.1263 0.199999 35.4596 0.599998C35.793 0.933331 35.9596 1.33333 35.9596 1.8C35.9596 2.26667 35.8596 2.73333 35.6596 3.2L29.2596 19.7C28.993 20.3667 28.593 20.9667 28.0596 21.5C27.593 22.0333 26.893 22.3 25.9596 22.3H20.8596ZM1.85964 22.3C1.25964 22.3 0.792969 22.1 0.459636 21.7C0.126302 21.2333 -0.00703133 20.7 0.0596355 20.1L2.75964 3.2C2.89297 2.33333 3.19297 1.6 3.65964 0.999999C4.19297 0.333333 4.95964 0 5.95964 0H15.1596C15.693 0 16.1263 0.199999 16.4596 0.599998C16.793 0.933331 16.9596 1.33333 16.9596 1.8C16.9596 2.26667 16.8596 2.73333 16.6596 3.2L10.2596 19.7C9.99297 20.3667 9.59297 20.9667 9.05964 21.5C8.59297 22.0333 7.89297 22.3 6.95964 22.3H1.85964Z" fill="white"/>
</svg>
