<svg width="32" height="32" viewBox="0 0 32 32" fill="none" xmlns="http://www.w3.org/2000/svg">
<path d="M19.3408 24.9999C19.1273 25.0006 18.9164 24.9582 18.7235 24.8759C18.5307 24.7935 18.3608 24.6734 18.2263 24.5242L11.325 16.8107C11.1149 16.5807 11 16.2921 11 15.9943C11 15.6966 11.1149 15.408 11.325 15.178L18.4692 7.46442C18.7117 7.20188 19.0602 7.03678 19.438 7.00544C19.8159 6.9741 20.192 7.07908 20.4838 7.2973C20.7756 7.51551 20.9591 7.82908 20.994 8.16903C21.0288 8.50897 20.9121 8.84744 20.6696 9.10998L14.2827 16.0008L20.4553 22.8915C20.63 23.0802 20.741 23.31 20.7751 23.5537C20.8092 23.7974 20.765 24.0448 20.6478 24.2666C20.5305 24.4884 20.3451 24.6753 20.1135 24.8053C19.8819 24.9352 19.6137 25.0028 19.3408 24.9999Z" fill="#333336"/>
</svg>
