<svg width="24" height="24" viewBox="0 0 24 24" fill="none" xmlns="http://www.w3.org/2000/svg">
<path d="M12 13.3C11.87 13.3 11.74 13.27 11.62 13.2L2.79 8.09C2.70464 8.0401 2.62995 7.97387 2.57018 7.8951C2.51042 7.81633 2.46675 7.72656 2.44168 7.63092C2.41661 7.53527 2.41062 7.43563 2.42406 7.33767C2.4375 7.23971 2.4701 7.14536 2.52 7.06C2.5699 6.97464 2.63613 6.89995 2.7149 6.84018C2.79367 6.78042 2.88344 6.73675 2.97908 6.71168C3.07472 6.68661 3.17437 6.68062 3.27233 6.69406C3.37029 6.7075 3.46464 6.7401 3.55 6.79L12 11.68L20.4 6.82C20.5728 6.7211 20.7776 6.69398 20.9702 6.74447C21.1628 6.79496 21.3279 6.91903 21.43 7.09C21.64 7.45 21.51 7.91 21.16 8.12L12.39 13.2C12.2687 13.2611 12.1357 13.2952 12 13.3Z" fill="url(#paint0_linear_317_729)"/>
<path d="M12 22.36C11.59 22.36 11.25 22.02 11.25 21.61V12.54C11.25 12.13 11.59 11.79 12 11.79C12.41 11.79 12.75 12.13 12.75 12.54V21.61C12.75 22.02 12.41 22.36 12 22.36Z" fill="url(#paint1_linear_317_729)"/>
<path d="M12 22.75C11.12 22.75 10.25 22.56 9.56 22.18L4.22 19.21C2.77 18.41 1.64 16.48 1.64 14.82V9.17C1.64 7.51 2.77 5.59 4.22 4.78L9.56 1.82C10.93 1.06 13.07 1.06 14.44 1.82L19.78 4.79C21.23 5.59 22.36 7.52 22.36 9.18V14.83C22.36 16.49 21.23 18.41 19.78 19.22L14.44 22.18C13.75 22.56 12.88 22.75 12 22.75ZM12 2.75C11.37 2.75 10.75 2.88 10.29 3.13L4.95 6.1C3.99 6.63 3.14 8.07 3.14 9.17V14.82C3.14 15.92 3.99 17.36 4.95 17.9L10.29 20.87C11.2 21.38 12.8 21.38 13.71 20.87L19.05 17.9C20.01 17.36 20.86 15.93 20.86 14.82V9.17C20.86 8.07 20.01 6.63 19.05 6.09L13.71 3.12C13.25 2.88 12.63 2.75 12 2.75Z" fill="url(#paint2_linear_317_729)"/>
<defs>
<linearGradient id="paint0_linear_317_729" x1="1.63367" y1="12.1077" x2="22.36" y2="12.1069" gradientUnits="userSpaceOnUse">
<stop stop-color="#736BFF"/>
<stop offset="1" stop-color="#AC59FF"/>
</linearGradient>
<linearGradient id="paint1_linear_317_729" x1="1.63367" y1="12.1077" x2="22.36" y2="12.1069" gradientUnits="userSpaceOnUse">
<stop stop-color="#736BFF"/>
<stop offset="1" stop-color="#AC59FF"/>
</linearGradient>
<linearGradient id="paint2_linear_317_729" x1="1.63367" y1="12.1077" x2="22.36" y2="12.1069" gradientUnits="userSpaceOnUse">
<stop stop-color="#736BFF"/>
<stop offset="1" stop-color="#AC59FF"/>
</linearGradient>
</defs>
</svg>
