<svg width="24" height="24" viewBox="0 0 24 24" fill="none" xmlns="http://www.w3.org/2000/svg">
<path d="M15.06 19.39C18.18 19.69 19.84 18.23 20.68 14.62L21.66 10.44C22.64 6.26001 21.36 4.19001 17.17 3.21001L15.5 2.82001C12.16 2.03001 10.17 2.68001 9.00001 5.10001M15.06 19.39C14.56 19.35 14.02 19.26 13.44 19.12L11.76 18.72C7.59001 17.73 6.30001 15.67 7.28001 11.49L8.26001 7.30001C8.46001 6.45001 8.70001 5.71001 9.00001 5.10001M15.06 19.39C14.44 19.81 13.66 20.16 12.71 20.47L11.13 20.99C7.16001 22.27 5.07001 21.2 3.78001 17.23L2.50001 13.28C1.22001 9.31001 2.28001 7.21001 6.25001 5.93001L7.83001 5.41001C8.24001 5.28001 8.63001 5.17001 9.00001 5.10001M12.64 8.53001L17.49 9.76001M11.66 12.4L14.56 13.14" stroke="url(#paint0_linear_317_741)" stroke-width="1.5" stroke-linecap="round" stroke-linejoin="round"/>
<defs>
<linearGradient id="paint0_linear_317_741" x1="1.97989" y1="12.097" x2="21.9724" y2="12.0962" gradientUnits="userSpaceOnUse">
<stop stop-color="#736BFF"/>
<stop offset="1" stop-color="#AC59FF"/>
</linearGradient>
</defs>
</svg>
