<svg width="37" height="36" viewBox="0 0 37 36" fill="none" xmlns="http://www.w3.org/2000/svg">
<path d="M7.12158 6.95809C7.12158 6.70599 7.12158 6.55473 7.12158 6.40347C7.12158 6.30263 7.17376 6.15136 7.2781 6.0001C7.43462 5.69758 7.852 5.54633 8.58241 5.54633C9.365 5.54633 9.83454 5.748 9.93889 6.15137C9.99106 6.35305 10.0432 6.60515 10.0432 6.95809V15.832C10.0432 16.0841 10.0432 16.2858 10.0432 16.3867C10.0432 16.4875 9.99107 16.6388 9.88672 16.79C9.7302 17.0925 9.31282 17.2438 8.58241 17.2438C7.79982 17.2438 7.38244 17.0421 7.22593 16.6388C7.17375 16.4875 7.12158 16.185 7.12158 15.832V6.95809Z" fill="white"/>
<path d="M10.957 6.95809C10.957 6.70599 10.957 6.55473 10.957 6.40347C10.957 6.30263 11.0092 6.15136 11.1136 6.0001C11.2701 5.69758 11.6874 5.54633 12.4179 5.54633C13.2004 5.54633 13.67 5.748 13.7743 6.15137C13.8265 6.35305 13.8787 6.60515 13.8787 6.95809V8.26901C13.8787 8.52111 13.8787 8.7228 13.8787 8.82364C13.8787 8.92448 13.8265 9.07574 13.7222 9.227C13.5657 9.52952 13.1483 9.68078 12.4179 9.68078C11.6353 9.68078 11.2179 9.4791 11.0614 9.07574C11.0092 8.92448 10.957 8.62195 10.957 8.26901V6.95809Z" fill="white"/>
<path d="M28.1474 6.00026C28.2518 6.15152 28.3039 6.30278 28.3039 6.45405C28.3039 6.60531 28.3039 6.75656 28.3039 7.00866V15.8826C28.3039 16.6389 28.0952 17.0423 27.6779 17.1935C27.4692 17.244 27.2083 17.2944 26.8953 17.2944C26.5822 17.2944 26.3214 17.244 26.1127 17.1935C25.904 17.1431 25.7996 17.0927 25.6953 16.9919C25.591 16.9414 25.5388 16.7902 25.4866 16.6893C25.4344 16.4877 25.3823 16.2356 25.3823 15.8826V10.4372C25.1214 10.7902 24.704 11.2944 24.1823 12.0003C23.6606 12.7061 23.2954 13.1599 23.191 13.3616C23.0345 13.5633 22.9302 13.6641 22.878 13.7145C22.8258 13.765 22.6693 13.8658 22.4606 14.0171C22.2519 14.1179 21.9911 14.2188 21.7824 14.2188C21.5737 14.2188 21.3128 14.1683 21.1041 14.0675C20.8954 13.9666 20.7389 13.8658 20.6868 13.765L20.5302 13.6137C20.3215 13.3616 19.852 12.7566 19.2259 11.8994C18.5999 11.0423 18.2346 10.5885 18.1825 10.4877V15.8826C18.1825 16.1347 18.1825 16.286 18.1825 16.4372C18.1825 16.5381 18.1303 16.6893 18.026 16.8406C17.8694 17.1431 17.4521 17.2944 16.7216 17.2944C16.0434 17.2944 15.626 17.1431 15.4695 16.8406C15.3652 16.6893 15.313 16.5381 15.313 16.4372C15.313 16.286 15.313 16.1347 15.313 15.8826V7.00866C15.313 6.75656 15.313 6.60531 15.313 6.45405C15.313 6.3532 15.3652 6.20194 15.4695 6.05068C15.626 5.79858 16.0434 5.64732 16.7738 5.64732C17.0869 5.64732 17.3477 5.69774 17.5564 5.74816C17.7651 5.79858 17.9216 5.89942 17.9738 5.94984L18.0781 6.05068L21.8345 10.7902C23.7128 8.42043 24.9649 6.80698 25.591 6.05068C25.7997 5.74816 26.217 5.5969 26.8953 5.5969C27.5735 5.54648 27.9909 5.69774 28.1474 6.00026Z" fill="white"/>
<path d="M12.3913 18.126C14.0086 18.126 15.4173 18.6806 16.6172 19.8403C17.8172 20.9999 18.4433 22.4117 18.4433 24.0756C18.4433 25.7394 17.8694 27.2016 16.7216 28.3613C15.5738 29.5714 14.1651 30.126 12.4956 30.126C10.8261 30.126 9.41743 29.5209 8.21746 28.3613C7.06967 27.2016 6.4436 25.7898 6.4436 24.1764C6.4436 23.2688 6.60012 22.4621 6.91315 21.7058C7.22619 20.9495 7.69574 20.2941 8.21746 19.7899C8.79136 19.2856 9.41743 18.8823 10.0957 18.5798C10.8783 18.2772 11.6087 18.126 12.3913 18.126ZM9.36526 24.126C9.36526 25.084 9.67829 25.8403 10.3044 26.4453C10.9304 27.0504 11.6608 27.3529 12.4434 27.3529C13.226 27.3529 13.9043 27.0503 14.5825 26.4957C15.2086 25.9411 15.5216 25.1344 15.5216 24.1764C15.5216 23.2184 15.2086 22.4117 14.5825 21.8571C13.9564 21.252 13.226 20.9999 12.4434 20.9999C11.6608 20.9999 10.9826 21.3025 10.3044 21.9075C9.67829 22.4117 9.36526 23.2184 9.36526 24.126Z" fill="white"/>
<path d="M24.7038 24.0756C26.3733 25.6386 27.5733 26.7983 28.3037 27.605C28.6689 28.0083 28.8254 28.3109 28.8254 28.6134C28.8254 28.9159 28.6168 29.2184 28.1472 29.5714C27.7298 29.9243 27.3646 30.126 27.0516 30.126C26.7907 30.126 26.4255 29.9243 26.0603 29.4705L22.4082 25.4873V28.6134C22.4082 28.8655 22.4082 29.0672 22.4082 29.168C22.4082 29.2688 22.3561 29.4201 22.2517 29.5714C22.0952 29.8739 21.6778 30.0251 20.9474 30.0251C20.1648 30.0251 19.7474 29.8235 19.5909 29.4201C19.5387 29.2688 19.4866 28.9663 19.4866 28.6134V19.7394C19.4866 19.4873 19.4866 19.3361 19.4866 19.1848C19.4866 19.084 19.5387 18.9327 19.6431 18.7814C19.7996 18.4789 20.217 18.3277 20.9474 18.3277C21.73 18.3277 22.1995 18.5293 22.3039 18.9327C22.3561 19.1344 22.4082 19.3865 22.4082 19.7394V22.7646C23.9212 21.1512 25.1212 19.7899 26.0603 18.7814C26.4255 18.3277 26.7907 18.126 27.0516 18.126C27.3124 18.126 27.6776 18.3277 28.1472 18.6806C28.5646 19.0336 28.8254 19.3865 28.8254 19.6386C28.8254 19.8907 28.6689 20.2436 28.3559 20.5966C27.7298 21.3025 26.7385 22.3109 25.3821 23.5209L24.7038 24.0756Z" fill="white"/>
<path fill-rule="evenodd" clip-rule="evenodd" d="M7.33023 2.77311C4.88793 2.77311 2.86948 4.72376 2.86948 7.08404V28.916C2.86948 31.2762 4.88792 33.2269 7.33023 33.2269H27.9905C30.4328 33.2269 32.4513 31.2762 32.4513 28.916V7.08404C32.4513 4.72376 30.4328 2.77311 27.9905 2.77311H7.33023ZM0 7.08404C0 3.19221 3.30315 0 7.33023 0H27.9905C32.0176 0 35.3208 3.19221 35.3208 7.08404V28.916C35.3208 32.8078 32.0176 36 27.9905 36H7.33023C3.30316 36 0 32.8078 0 28.916V7.08404Z" fill="white"/>
</svg>
