<svg width="24" height="24" viewBox="0 0 24 24" fill="none" xmlns="http://www.w3.org/2000/svg">
<path d="M5.5 5.75C5.5 5.47386 5.27614 5.25 5 5.25C4.72386 5.25 4.5 5.47386 4.5 5.75V6.75C4.5 7.02614 4.72386 7.25 5 7.25C5.27614 7.25 5.5 7.02614 5.5 6.75V5.75Z" fill="#333336"/>
<path d="M19.5 5.75C19.5 5.47386 19.2761 5.25 19 5.25C18.7239 5.25 18.5 5.47386 18.5 5.75V9.75C18.5 10.0261 18.7239 10.25 19 10.25C19.2761 10.25 19.5 10.0261 19.5 9.75V5.75Z" fill="#333336"/>
<path d="M5.5 8.75C5.5 8.47386 5.27614 8.25 5 8.25C4.72386 8.25 4.5 8.47386 4.5 8.75V9.75C4.5 10.0261 4.72386 10.25 5 10.25C5.27614 10.25 5.5 10.0261 5.5 9.75V8.75Z" fill="#333336"/>
<path fill-rule="evenodd" clip-rule="evenodd" d="M17 19.75V3.75C17 3.19771 16.5523 2.75 16 2.75H15.7208L15.1766 4.38245C14.9044 5.19915 14.1401 5.75 13.2792 5.75V3.75L13.6126 2.75H10.3874L10.7207 3.75V5.75C9.8599 5.75 9.0956 5.19915 8.8234 4.38245L8.27923 2.75H8C7.4477 2.75 7 3.19771 7 3.75V19.75C7 20.3023 7.4477 20.75 8 20.75H16C16.5523 20.75 17 20.3023 17 19.75ZM19 3.75V19.75C19 21.4069 17.6568 22.75 16 22.75H8C6.34315 22.75 5 21.4069 5 19.75V3.75C5 2.09314 6.34315 0.75 8 0.75H9H15H16C17.6568 0.75 19 2.09314 19 3.75Z" fill="#333336"/>
<path d="M10.7207 5.75H13.2792V3.75H10.7207V5.75Z" fill="#333336"/>
</svg>
