<svg width="24" height="24" viewBox="0 0 24 24" fill="none" xmlns="http://www.w3.org/2000/svg">
<path d="M8.67 22.7502H2C1.59 22.7502 1.25 22.4102 1.25 22.0002V16.0002C1.25 14.4802 2.48 13.2502 4 13.2502H8.67C9.08 13.2502 9.42 13.5902 9.42 14.0002V22.0002C9.42 22.4102 9.08 22.7502 8.67 22.7502ZM2.75 21.2502H7.92V14.7502H4C3.31 14.7502 2.75 15.3102 2.75 16.0002V21.2502Z" fill="url(#paint0_linear_317_723)"/>
<path d="M15.33 22.7502H8.66C8.25 22.7502 7.91 22.4102 7.91 22.0002V12.0002C7.91 10.4802 9.14 9.25023 10.66 9.25023H13.33C14.85 9.25023 16.08 10.4802 16.08 12.0002V22.0002C16.08 22.4102 15.75 22.7502 15.33 22.7502ZM9.42 21.2502H14.59V12.0002C14.59 11.3102 14.03 10.7502 13.34 10.7502H10.67C9.98 10.7502 9.42 11.3102 9.42 12.0002V21.2502Z" fill="url(#paint1_linear_317_723)"/>
<path d="M22 22.7502H15.33C14.92 22.7502 14.58 22.4102 14.58 22.0002V17.0002C14.58 16.5902 14.92 16.2502 15.33 16.2502H20C21.52 16.2502 22.75 17.4802 22.75 19.0002V22.0002C22.75 22.4102 22.41 22.7502 22 22.7502ZM16.08 21.2502H21.25V19.0002C21.25 18.3102 20.69 17.7502 20 17.7502H16.08V21.2502Z" fill="url(#paint2_linear_317_723)"/>
<path d="M13.699 8.35023C13.459 8.35023 13.159 8.28023 12.819 8.08023L11.999 7.59023L11.189 8.07023C10.369 8.56023 9.829 8.27023 9.629 8.13023C9.429 7.99023 8.999 7.55023 9.209 6.63023L9.399 5.80023L8.719 5.12023C8.299 4.70023 8.149 4.20023 8.299 3.74023C8.449 3.28023 8.859 2.96023 9.439 2.86023L10.309 2.71023L10.799 1.73023C11.339 0.660234 12.649 0.660234 13.179 1.73023L13.669 2.71023L14.539 2.86023C15.119 2.96023 15.539 3.28023 15.679 3.74023C15.829 4.20023 15.669 4.70023 15.259 5.12023L14.579 5.80023L14.769 6.63023C14.979 7.56023 14.549 7.99023 14.349 8.14023C14.259 8.22023 14.029 8.35023 13.699 8.35023ZM11.999 6.08023C12.239 6.08023 12.479 6.14023 12.679 6.26023L13.239 6.59023L13.119 6.05023C13.019 5.63023 13.169 5.12023 13.479 4.81023L13.989 4.30023L13.359 4.19023C12.959 4.12023 12.569 3.83023 12.389 3.47023L11.999 2.72023L11.619 3.47023C11.439 3.83023 11.049 4.12023 10.649 4.19023L10.019 4.29023L10.529 4.80023C10.839 5.11023 10.979 5.62023 10.889 6.04023L10.769 6.58023L11.329 6.25023C11.519 6.13023 11.759 6.08023 11.999 6.08023Z" fill="url(#paint3_linear_317_723)"/>
<defs>
<linearGradient id="paint0_linear_317_723" x1="1.24344" y1="11.9483" x2="22.75" y2="11.9475" gradientUnits="userSpaceOnUse">
<stop stop-color="#736BFF"/>
<stop offset="1" stop-color="#AC59FF"/>
</linearGradient>
<linearGradient id="paint1_linear_317_723" x1="1.24344" y1="11.9483" x2="22.75" y2="11.9475" gradientUnits="userSpaceOnUse">
<stop stop-color="#736BFF"/>
<stop offset="1" stop-color="#AC59FF"/>
</linearGradient>
<linearGradient id="paint2_linear_317_723" x1="1.24344" y1="11.9483" x2="22.75" y2="11.9475" gradientUnits="userSpaceOnUse">
<stop stop-color="#736BFF"/>
<stop offset="1" stop-color="#AC59FF"/>
</linearGradient>
<linearGradient id="paint3_linear_317_723" x1="1.24344" y1="11.9483" x2="22.75" y2="11.9475" gradientUnits="userSpaceOnUse">
<stop stop-color="#736BFF"/>
<stop offset="1" stop-color="#AC59FF"/>
</linearGradient>
</defs>
</svg>
