<svg width="24" height="24" viewBox="0 0 24 24" fill="none" xmlns="http://www.w3.org/2000/svg">
<path d="M17.38 10.38V13.61M17.38 10.38C17.38 7.69 16.31 6.62 13.61 6.61H11.23M17.38 10.38V10.39M17.38 13.61C17.38 16.3 16.3 17.38 13.61 17.38M17.38 13.61V12.77M13.61 17.38H10.38M13.61 17.38H12.77M10.38 17.38C7.69 17.38 6.61 16.3 6.61 13.61V11.23M10.38 17.38H10.39M17.38 12.77H18.23C20.92 12.77 22 11.69 22 9V5.77C22 3.08 20.92 2 18.23 2H15C12.31 2 11.23 3.08 11.23 5.77V6.61M17.38 12.77V10.39M17.38 10.39C17.38 7.7 16.3 6.62 13.61 6.62H11.23V6.61M10.39 17.38C7.7 17.38 6.62 16.3 6.62 13.61V11.23H6.61M10.39 17.38H12.77M12.77 17.38V18.23C12.77 20.92 11.69 22 9 22H5.77C3.08 22 2 20.92 2 18.23V15C2 12.31 3.08 11.23 5.77 11.23H6.61M11.23 6.61H10.38C7.69 6.61 6.61 7.69 6.61 10.38V11.23" stroke="url(#paint0_linear_317_947)" stroke-width="1.5" stroke-linecap="round" stroke-linejoin="round"/>
<defs>
<linearGradient id="paint0_linear_317_947" x1="1.99389" y1="12.1002" x2="22" y2="12.0994" gradientUnits="userSpaceOnUse">
<stop stop-color="#736BFF"/>
<stop offset="1" stop-color="#AC59FF"/>
</linearGradient>
</defs>
</svg>
