<svg width="32" height="32" viewBox="0 0 32 32" fill="none" xmlns="http://www.w3.org/2000/svg">
<path d="M28.7718 9.1401C28.9585 8.5201 28.7718 8.06543 27.8892 8.06543H24.9652C24.2212 8.06543 23.8812 8.45876 23.6945 8.89076C23.6945 8.89076 22.2078 12.5161 20.1012 14.8668C19.4212 15.5508 19.1105 15.7668 18.7398 15.7668C18.5545 15.7668 18.2852 15.5508 18.2852 14.9308V9.1401C18.2852 8.3961 18.0705 8.06543 17.4505 8.06543H12.8558C12.3918 8.06543 12.1118 8.40943 12.1118 8.73743C12.1118 9.44143 13.1652 9.6041 13.2732 11.5881V15.8921C13.2732 16.8348 13.1038 17.0068 12.7305 17.0068C11.7398 17.0068 9.32917 13.3681 7.8985 9.20276C7.61984 8.39343 7.3385 8.06676 6.59184 8.06676H3.66917C2.83317 8.06676 2.6665 8.4601 2.6665 8.8921C2.6665 9.6681 3.65717 13.5081 7.28117 18.5868C9.69717 22.0548 13.0985 23.9348 16.1972 23.9348C18.0545 23.9348 18.2838 23.5174 18.2838 22.7974V20.1761C18.2838 19.3414 18.4612 19.1734 19.0492 19.1734C19.4812 19.1734 20.2252 19.3921 21.9598 21.0628C23.9412 23.0441 24.2692 23.9334 25.3825 23.9334H28.3052C29.1398 23.9334 29.5572 23.5161 29.3172 22.6921C29.0545 21.8721 28.1078 20.6788 26.8518 19.2668C26.1692 18.4614 25.1492 17.5948 24.8385 17.1614C24.4052 16.6028 24.5305 16.3561 24.8385 15.8601C24.8398 15.8614 28.4012 10.8454 28.7718 9.1401Z" fill="white"/>
</svg>
